<svg xmlns="http://www.w3.org/2000/svg" viewBox="0 0 100 60" width="100" height="60">
	<style>
		tspan { white-space:pre }
		.shp0 { fill: #252f3e } 
		.shp1 { fill: #ff9900 } 
	</style>
	<path id="Layer" fill-rule="evenodd" class="shp0" d="M28.14 21.77C28.14 23 28.27 24 28.5 24.73C28.77 25.47 29.1 26.27 29.57 27.13C29.73 27.4 29.8 27.67 29.8 27.9C29.8 28.23 29.6 28.57 29.17 28.9L27.08 30.3C26.78 30.5 26.48 30.6 26.21 30.6C25.88 30.6 25.55 30.43 25.22 30.13C24.75 29.63 24.35 29.1 24.02 28.57C23.69 28 23.36 27.37 22.99 26.6C20.4 29.67 17.14 31.2 13.22 31.2C10.43 31.2 8.21 30.4 6.58 28.8C4.95 27.2 4.12 25.07 4.12 22.4C4.12 19.57 5.12 17.27 7.14 15.53C9.17 13.8 11.86 12.93 15.28 12.93C16.41 12.93 17.57 13.03 18.8 13.2C20.03 13.37 21.3 13.63 22.62 13.93L22.62 11.5C22.62 8.97 22.09 7.2 21.06 6.17C20 5.13 18.21 4.63 15.65 4.63C14.49 4.63 13.29 4.77 12.06 5.07C10.83 5.37 9.63 5.73 8.47 6.2C7.94 6.43 7.54 6.57 7.31 6.63C7.08 6.7 6.91 6.73 6.78 6.73C6.31 6.73 6.08 6.4 6.08 5.7L6.08 4.07C6.08 3.53 6.15 3.13 6.31 2.9C6.48 2.67 6.78 2.43 7.24 2.2C8.41 1.6 9.8 1.1 11.43 0.7C13.06 0.27 14.78 0.07 16.61 0.07C20.56 0.07 23.46 0.97 25.32 2.77C27.14 4.57 28.07 7.3 28.07 10.97L28.07 21.77L28.14 21.77ZM18.07 26.23C19.27 25.83 20.33 25.1 21.23 24.1C21.76 23.47 22.16 22.77 22.36 21.97C22.56 21.17 22.69 20.2 22.69 19.07L22.69 17.67C21.73 17.43 20.7 17.23 19.63 17.1C18.57 16.97 17.54 16.9 16.51 16.9C14.29 16.9 12.66 17.33 11.56 18.23C10.47 19.13 9.93 20.4 9.93 22.07C9.93 23.63 10.33 24.8 11.16 25.6C11.96 26.43 13.12 26.83 14.65 26.83C15.75 26.83 16.88 26.63 18.07 26.23ZM40.07 30.1C39.8 29.9 39.57 29.43 39.37 28.8L31.56 3.03C31.36 2.37 31.26 1.93 31.26 1.7C31.26 1.17 31.53 0.87 32.06 0.87L35.32 0.87C35.95 0.87 36.38 0.97 36.61 1.2C36.88 1.4 37.08 1.87 37.28 2.5L42.86 24.57L48.04 2.5C48.21 1.83 48.41 1.4 48.67 1.2C48.94 1 49.4 0.87 50 0.87L52.66 0.87C53.29 0.87 53.72 0.97 53.99 1.2C54.25 1.4 54.49 1.87 54.62 2.5L59.87 24.83L65.61 2.5C65.81 1.83 66.05 1.4 66.28 1.2C66.54 1 66.98 0.87 67.57 0.87L70.66 0.87C71.2 0.87 71.5 1.13 71.5 1.7C71.5 1.87 71.46 2.03 71.43 2.23C71.4 2.43 71.33 2.7 71.2 3.07L63.19 28.83C62.99 29.5 62.76 29.93 62.49 30.13C62.23 30.33 61.79 30.47 61.23 30.47L58.37 30.47C57.74 30.47 57.31 30.37 57.04 30.13C56.78 29.9 56.54 29.47 56.41 28.8L51.26 7.3L46.15 28.77C45.98 29.43 45.78 29.87 45.51 30.1C45.25 30.33 44.78 30.43 44.19 30.43L41.33 30.43C40.73 30.43 40.33 30.33 40.07 30.1ZM78.9 30.73C77.24 30.33 75.95 29.9 75.08 29.4C74.55 29.1 74.19 28.77 74.05 28.47C73.92 28.17 73.85 27.83 73.85 27.53L73.85 25.83C73.85 25.13 74.12 24.8 74.62 24.8C74.82 24.8 75.02 24.83 75.22 24.9C75.42 24.97 75.71 25.1 76.05 25.23C77.18 25.73 78.41 26.13 79.7 26.4C81.03 26.67 82.33 26.8 83.65 26.8C85.75 26.8 87.38 26.43 88.5 25.7C89.63 24.97 90.23 23.9 90.23 22.53C90.23 21.6 89.93 20.83 89.34 20.2C88.74 19.57 87.61 19 85.98 18.47L81.16 16.97C78.74 16.2 76.94 15.07 75.85 13.57C74.75 12.1 74.19 10.47 74.19 8.73C74.19 7.33 74.49 6.1 75.08 5.03C75.68 3.97 76.48 3.03 77.48 2.3C78.47 1.53 79.6 0.97 80.93 0.57C82.26 0.17 83.65 0 85.12 0C85.85 0 86.61 0.03 87.34 0.13C88.11 0.23 88.8 0.37 89.5 0.5C90.17 0.67 90.8 0.83 91.4 1.03C91.99 1.23 92.46 1.43 92.79 1.63C93.26 1.9 93.59 2.17 93.79 2.47C93.99 2.73 94.09 3.1 94.09 3.57L94.09 5.13C94.09 5.83 93.82 6.2 93.32 6.2C93.06 6.2 92.62 6.07 92.06 5.8C90.17 4.93 88.04 4.5 85.68 4.5C83.79 4.5 82.29 4.8 81.26 5.43C80.23 6.07 79.7 7.03 79.7 8.4C79.7 9.33 80.03 10.13 80.7 10.77C81.36 11.4 82.59 12.03 84.35 12.6L89.07 14.1C91.46 14.87 93.19 15.93 94.22 17.3C95.25 18.67 95.75 20.23 95.75 21.97C95.75 23.4 95.45 24.7 94.88 25.83C94.29 26.97 93.49 27.97 92.46 28.77C91.43 29.6 90.2 30.2 88.77 30.63C87.28 31.1 85.71 31.33 84.02 31.33C82.29 31.33 80.56 31.13 78.9 30.73Z" />
	<path id="Layer" class="shp1" d="M90.3 47.53C79.37 55.63 63.49 59.93 49.83 59.93C30.7 59.93 13.46 52.83 0.43 41.03C-0.6 40.1 0.33 38.83 1.56 39.57C15.65 47.77 33.02 52.73 51 52.73C63.12 52.73 76.45 50.2 88.7 45C90.53 44.17 92.09 46.2 90.3 47.53Z" />
	<path id="Layer" class="shp1" d="M94.85 42.33C93.46 40.53 85.61 41.47 82.06 41.9C81 42.03 80.83 41.1 81.79 40.4C88.04 36 98.31 37.27 99.5 38.73C100.7 40.23 99.17 50.53 93.32 55.47C92.43 56.23 91.56 55.83 91.96 54.83C93.29 51.53 96.25 44.1 94.85 42.33L94.85 42.33Z" />
</svg>