<svg xmlns="http://www.w3.org/2000/svg" viewBox="0 0 120 33" width="120" height="33">
	<style>
		tspan { white-space:pre }
		.shp0 { fill: #b52e31 } 
		.shp1 { fill: #e23237 } 
		.shp2 { fill: #ffffff } 
	</style>
	<g id="Layer">
		<g id="Layer">
			<g id="Layer">
				<path id="Layer" fill-rule="evenodd" class="shp0" d="M35.3 24.41L35.3 9.45L37.2 9.45L46.22 21.49L46.22 9.45L48.02 9.45L48.02 24.41L46.13 24.41L37.1 12.25L37.1 24.41L35.3 24.41L35.3 24.41Z" />
				<path id="Layer" fill-rule="evenodd" class="shp0" d="M62.72 23.81C61.52 24.26 60.23 24.5 58.88 24.5C53.53 24.5 50.86 21.91 50.86 16.71C50.86 11.8 53.44 9.33 58.59 9.33C60.07 9.33 61.45 9.54 62.72 9.95L62.72 11.61C61.45 11.11 60.14 10.87 58.8 10.87C54.77 10.87 52.76 12.82 52.76 16.67C52.76 20.82 54.75 22.89 58.71 22.89C59.34 22.89 60.05 22.79 60.82 22.63L60.82 17.62L62.72 17.62L62.72 23.81L62.72 23.81Z" />
				<path id="Layer" fill-rule="evenodd" class="shp0" d="M65.77 18.64L65.77 9.45L67.66 9.45L67.66 18.64C67.66 21.51 69.07 22.96 71.91 22.96C74.72 22.96 76.15 21.51 76.15 18.64L76.15 9.45L78.05 9.45L78.05 18.64C78.05 22.55 76.01 24.52 71.91 24.52C67.8 24.52 65.77 22.55 65.77 18.64L65.77 18.64L65.77 18.64Z" />
				<path id="Layer" fill-rule="evenodd" class="shp0" d="M83.34 9.45L83.34 22.84L91.08 22.84L91.08 24.41L81.45 24.41L81.45 9.45L83.34 9.45L83.34 9.45Z" />
				<path id="Layer" fill-rule="evenodd" class="shp0" d="M93.82 24.41L91.83 24.41L99.16 7.48L106.5 24.41L104.39 24.41L102.49 19.71L97.62 19.71L98.13 18.14L101.86 18.14L99.09 11.37L93.82 24.41L93.82 24.41Z" />
				<path id="Layer" fill-rule="evenodd" class="shp0" d="M108.54 24.41L108.54 9.45L114.84 9.45C117.66 9.45 119.06 10.64 119.06 13.03C119.06 14.98 117.68 16.43 114.94 17.35L120 24.41L117.49 24.41L112.8 17.69L112.8 16.43C115.62 15.98 117.05 14.89 117.05 13.13C117.05 11.75 116.27 11.06 114.7 11.06L110.48 11.06L110.48 24.41L108.54 24.41L108.54 24.41Z" />
			</g>
			<g id="Layer">
				<path id="Layer" fill-rule="evenodd" class="shp1" d="M0 5.46L15.12 0L30.63 5.37L28.13 25.62L15.12 32.91L2.32 25.71L0 5.46L0 5.46Z" />
				<path id="Layer" fill-rule="evenodd" class="shp0" d="M30.63 5.37L15.12 0L15.12 32.91L28.13 25.62L30.63 5.37L30.63 5.37Z" />
				<path id="Layer" fill-rule="evenodd" class="shp2" d="M15.14 3.85L24.96 25.12L21.61 25.05L19.55 20.2L11.13 20.2L9.23 25L5.72 25.07L15.14 3.85ZM15.16 10.66L12.38 17.4L18.35 17.4L15.16 10.66Z" />
			</g>
		</g>
	</g>
</svg>