<svg xmlns="http://www.w3.org/2000/svg" viewBox="0 0 50 50" width="50" height="50">
	<style>
		tspan { white-space:pre }
		.shp0 { fill: #563d7c } 
		.shp1 { fill: #ffffff } 
	</style>
	<g id="Layer">
		<path id="Layer" class="shp0" d="M0 43.55C0 47.11 2.89 50 6.45 50L43.55 50C47.11 50 50 47.11 50 43.55L50 6.45C50 2.89 47.11 0 43.55 0L6.45 0C2.89 0 0 2.89 0 6.45L0 43.55Z" />
		<path id="Layer" fill-rule="evenodd" class="shp1" d="M14.08 9.86L28.33 9.86C29.77 9.86 31.08 9.99 32.27 10.25C33.45 10.5 34.47 10.91 35.32 11.49C36.17 12.07 36.83 12.85 37.29 13.81C37.76 14.77 37.99 15.95 37.99 17.37C37.99 18.89 37.65 20.17 36.95 21.19C36.26 22.2 35.23 23.03 33.88 23.69C35.75 24.22 37.13 25.16 38.05 26.51C38.97 27.85 39.43 29.47 39.43 31.36C39.43 32.89 39.13 34.21 38.54 35.33C37.95 36.44 37.15 37.35 36.15 38.06C35.14 38.77 34 39.29 32.71 39.63C31.43 39.97 30.11 40.14 28.75 40.14L14.08 40.14L14.08 9.86ZM20.73 22.12L27.47 22.12C28.66 22.12 29.64 21.83 30.4 21.27C31.17 20.71 31.55 19.79 31.55 18.51C31.55 17.81 31.42 17.23 31.17 16.77C30.91 16.32 30.57 15.97 30.15 15.71C29.72 15.46 29.23 15.29 28.69 15.19C28.13 15.09 27.56 15.03 26.97 15.03L20.73 15.03L20.73 22.12ZM20.73 34.97L27.86 34.97C28.51 34.97 29.13 34.9 29.72 34.77C30.31 34.65 30.84 34.43 31.29 34.14C31.75 33.84 32.11 33.44 32.37 32.93C32.64 32.42 32.77 31.77 32.77 30.98C32.77 29.43 32.34 28.31 31.46 27.65C30.59 26.99 29.43 26.65 27.99 26.65L20.73 26.65L20.73 34.97Z" />
	</g>
</svg>