<svg xmlns="http://www.w3.org/2000/svg" viewBox="0 0 90 80" width="90" height="80">
	<style>
		tspan { white-space:pre }
		.shp0 { fill: #543729 } 
		.shp1 { fill: #00acee } 
		.shp2 { fill: #2baf2b } 
		.shp3 { fill: #ffcc2f } 
		.shp4 { fill: #cecece } 
		.shp5 { fill: #ef5734 } 
		.shp6 { fill: #ffffff } 
	</style>
	<g id="Layer">
		<path id="Layer" class="shp0" d="M89.48 39.15C84.87 34.67 61.79 31.87 54.51 31.05C54.86 30.22 55.16 29.35 55.41 28.45C56.4 28.01 57.47 27.6 58.58 27.25C58.71 27.66 59.35 29.2 59.71 29.94C74.36 30.35 75.11 18.94 75.71 15.81C76.28 12.75 76.26 9.79 81.28 4.39C73.8 2.19 63.03 7.81 59.43 16.18C58.08 15.66 56.73 15.29 55.38 15.05C54.42 11.13 49.41 0.2 36.26 0.2C19.62 0.2 1.48 14.08 1.48 37.59C1.48 57.35 14.82 74.66 22.35 74.66C25.65 74.66 28.47 72.17 29.14 69.94C29.7 71.47 31.41 76.24 31.98 77.45C32.8 79.24 36.64 80.79 38.32 78.93C40.48 80.15 44.44 80.87 46.6 77.64C50.76 78.53 54.44 76.02 54.52 73.03C56.56 72.92 57.56 70.02 57.11 67.71C56.79 66.01 53.28 59.91 51.91 57.81C54.62 60.04 61.49 60.67 62.31 57.81C66.69 61.28 73.49 59.45 74.03 56.64C79.34 58.04 85.44 54.96 84.44 51.25C92.97 50.66 91.87 41.48 89.48 39.15L89.48 39.15Z" />
		<path id="Layer" fill-rule="evenodd" class="shp1" d="M72.79 9.38C69.59 10.69 66.42 14.6 64.54 18.78C63.58 18.16 62.62 17.62 61.64 17.14C64.25 11.5 70.32 6.78 77.02 6.42C72.54 10.53 74.12 19.07 70.44 23.6C69.39 22.53 66.97 20.46 65.73 19.58C67.57 15.9 69.87 11.87 72.79 9.38ZM62.84 25.58C62.99 25.31 63.43 24.35 63.61 23.98C65.21 24.29 67.31 24.81 68.54 25.39C67.09 26.34 64.64 27.37 61.23 27.45C60.74 26.36 60.24 24.56 60.3 23.5C61.14 23.48 62.73 23.8 62.99 23.86C62.89 24.35 62.84 25.45 62.84 25.58Z" />
		<path id="Layer" fill-rule="evenodd" class="shp2" d="M50.18 54.76C49.75 53.83 49.29 52.68 48.75 51.19C50.88 54.33 57.56 52.71 57.21 49.9C60.48 52.39 67.21 49.49 65.68 46C68.96 47.55 72.69 44.44 71.85 43.08C77.43 44.17 82.79 45.25 84.46 45.69C83.35 47.54 80.81 48.84 76.98 47.93C79.05 50.78 75.03 54.2 69.43 52.32C70.67 55.12 65.68 57.64 60.02 54.72C60.09 57.52 52.99 57.85 50.18 54.75L50.18 54.76ZM61.26 40.59C66.22 40.62 76.05 39.65 79.93 39.23C83.53 40.2 84.67 40.83 85.09 43.01C78.45 42.07 67.74 41.09 61.26 40.59Z" />
		<path id="Layer" class="shp3" d="M57.21 49.9C60.48 52.39 67.21 49.49 65.68 46C68.96 47.55 72.69 44.44 71.85 43.08C65.25 41.8 58.33 40.5 56.75 40.28C57.71 40.33 59.28 40.44 61.26 40.59C66.22 40.62 76.05 39.65 79.93 39.23C73.65 37.62 60.85 35.27 52 34.69C51.6 35.3 50.84 36.33 49.53 37.42C45.66 45.7 38.64 51.2 30.89 51.2C28.63 51.2 26.1 50.82 23.26 49.9C21.5 51.81 13.96 53.26 7.85 50.23C12.7 61.72 23.95 69.38 36.4 69.38C46.89 69.38 51.54 58.55 50.52 55.69C50.27 54.99 49.29 52.68 48.74 51.19C50.88 54.33 57.55 52.71 57.21 49.9L57.21 49.9Z" />
		<path id="Layer" class="shp4" d="M50.85 28.1C51.78 27.59 54.98 25.63 58.03 24.89C57.98 24.55 57.94 24.21 57.92 23.86C55.92 24.35 52.14 25.98 49.98 23.73C54.55 25.12 56.82 22.49 60.17 22.49C62.17 22.49 65.02 23.05 67.26 23.95C65.46 22.25 59.53 17.16 52.2 17.15C50.56 19.15 48.8 23.5 50.85 28.1L50.85 28.1Z" />
		<path id="Layer" class="shp5" d="M23.26 49.9C26.1 50.82 28.63 51.2 30.89 51.2C38.64 51.2 45.66 45.7 49.53 37.42C46.66 39.84 41.7 41.9 33.93 41.9C40.84 40.31 46.8 36.83 49.83 31.73C47.7 28.3 45.39 20.72 51.24 14.72C50.34 11.8 45.96 4.08 36.26 4.08C19.34 4.08 5.32 18.4 5.32 37.59C5.32 42.14 6.23 46.39 7.85 50.23C13.96 53.26 21.5 51.81 23.26 49.9L23.26 49.9Z" />
		<path id="Layer" class="shp3" d="M28.34 20.68C28.34 25.05 31.84 28.58 36.16 28.58C40.47 28.58 43.97 25.05 43.97 20.68C43.97 16.31 40.47 12.77 36.16 12.77C31.84 12.77 28.34 16.31 28.34 20.68L28.34 20.68Z" />
		<path id="Layer" class="shp0" d="M31.48 20.68C31.48 23.29 33.58 25.41 36.16 25.41C38.74 25.41 40.84 23.29 40.84 20.68C40.84 18.06 38.74 15.95 36.16 15.95C33.58 15.95 31.48 18.06 31.48 20.68L31.48 20.68Z" />
		<path id="Layer" class="shp6" d="M36.16 20.29C34.65 20.29 33.43 19.53 33.43 18.58C33.43 17.63 34.65 16.86 36.16 16.86C37.66 16.86 38.89 17.63 38.89 18.58C38.89 19.53 37.66 20.29 36.16 20.29Z" />
	</g>
</svg>