<svg xmlns="http://www.w3.org/2000/svg" viewBox="0 0 140 75" width="140" height="75">
	<style>
		tspan { white-space:pre }
		.shp0 { fill: #000000 } 
		.shp1 { fill: #ffffff } 
		.shp2 { fill: #663399 } 
	</style>
	<path id="Layer" fill-rule="evenodd" class="shp0" d="M83.17 34.7L83.17 36.31C82.03 34.44 80.16 34.32 79.16 34.32C75.53 34.32 73.03 37.19 73.03 40.94C73.03 44.56 75.53 47.56 79.42 47.56C80.41 47.56 82.03 47.45 83.29 45.57L83.29 47.19L86.78 47.19L86.78 34.7L83.17 34.7ZM76.78 40.94C76.78 40.47 76.86 40.02 77.03 39.59C77.2 39.15 77.45 38.76 77.78 38.43C78.11 38.12 78.5 37.84 78.94 37.68C79.36 37.52 79.82 37.42 80.29 37.44C82.41 37.44 83.78 38.94 83.78 40.94C83.8 41.4 83.71 41.87 83.55 42.29C83.38 42.72 83.11 43.11 82.8 43.44C82.47 43.77 82.07 44.03 81.64 44.19C81.2 44.37 80.75 44.45 80.29 44.45C78.16 44.45 76.78 42.95 76.78 40.94ZM96.04 37.7L96.04 34.7L93.66 34.7L93.66 30.43L90.16 30.43L90.16 34.7L88.8 34.7L88.8 37.7L90.16 37.7L90.16 47.19L93.66 47.19L93.66 37.7L96.04 37.7ZM106.05 35.69C104.41 34.44 102.91 34.3 102.04 34.3C101.03 34.3 99.79 34.44 98.78 35.19C98.17 35.8 97.54 36.81 97.54 38.05C97.54 39.06 97.91 39.81 98.55 40.44C99.3 41.19 100.28 41.56 101.17 41.94L101.92 42.2C102.41 42.31 103.05 42.69 103.05 43.44C103.05 44.31 102.3 44.82 101.29 44.82C100.28 44.82 99.3 44.07 98.55 43.32L96.67 45.44C97.54 46.32 98.92 47.56 101.55 47.56C103.05 47.56 104.29 47.07 105.3 46.19C106.28 45.31 106.66 44.19 106.66 43.06C106.66 42.2 106.42 41.45 106.05 40.94C105.41 39.95 103.91 39.57 102.91 39.2L102.04 38.94C101.03 38.56 100.91 38.19 100.91 37.81C100.91 37.19 101.41 36.81 102.3 36.81C102.67 36.81 103.41 36.95 104.29 37.7L106.05 35.69ZM111.91 26.19L108.41 26.19L108.41 47.19L111.79 47.19L111.79 45.55C113.17 47.43 115.05 47.56 115.8 47.56C119.55 47.56 122.03 44.69 122.03 40.94C122.03 37.19 119.55 34.3 115.91 34.3C114.91 34.3 113.16 34.56 111.91 36.31L111.91 26.19ZM115.03 37.44C117.16 37.44 118.54 38.94 118.54 40.94C118.56 41.4 118.47 41.87 118.3 42.29C118.12 42.72 117.86 43.11 117.53 43.44C117.2 43.77 116.81 44.03 116.4 44.19C115.96 44.37 115.5 44.45 115.03 44.45C112.91 44.45 111.53 42.95 111.53 40.94C111.53 38.94 112.91 37.44 115.03 37.44ZM123.28 53.82L127.28 53.82L137.29 34.7L133.28 34.7L129.79 41.82L125.91 34.7L121.78 34.7L127.78 45.31L123.28 53.82ZM72.16 36.81L63.41 36.81L63.41 40.32L68.03 40.32C67.28 42.69 65.53 44.31 62.29 44.31C58.66 44.31 56.03 41.31 56.03 37.7C56.03 34.06 58.54 30.95 62.16 30.95C64.16 30.95 66.16 31.93 67.41 33.57L70.28 31.7C68.41 29.07 65.41 27.57 62.16 27.57C56.66 27.57 52.16 32.07 52.16 37.7C52.16 43.3 56.41 47.82 62.16 47.82C67.91 47.82 72.16 43.32 72.16 37.7C72.28 37.32 72.16 37.06 72.16 36.81Z" />
	<path id="Layer" fill-rule="evenodd" class="shp1" d="M27.92 54.02L7.75 33.83C9.45 26.34 16.16 20.68 24.12 20.68C29.79 20.68 34.67 23.43 37.73 27.57L35.44 29.57C32.83 26.04 28.7 23.75 24.12 23.75C18.16 23.75 12.96 27.55 11.13 32.91L28.7 50.51C33.14 48.97 36.51 45.15 37.57 40.56L30.23 40.56L30.23 37.5L40.95 37.5C40.95 45.45 35.29 52.19 27.92 54.02ZM23.82 54.16C19.69 54.16 15.4 52.48 12.19 49.28C8.98 46.06 7.3 41.94 7.3 37.65L23.82 54.16Z" />
	<path id="Layer" fill-rule="evenodd" class="shp2" d="M24.12 16.09C35.89 16.09 45.53 25.72 45.53 37.5C45.53 49.28 35.89 58.91 24.12 58.91C12.34 58.91 2.71 49.28 2.71 37.5C2.71 25.72 12.34 16.09 24.12 16.09ZM23.96 54.33L7.3 37.8C7.3 41.94 8.98 46.21 12.19 49.43C15.4 52.64 19.69 54.16 23.96 54.33ZM40.95 37.5L30.23 37.5L30.23 40.58L37.59 40.58C36.52 45.15 33.16 48.97 28.72 50.51L11.14 32.92C13.12 27.57 18.17 23.75 24.13 23.75C28.72 23.75 32.84 26.04 35.44 29.57L37.73 27.55C34.67 23.43 29.79 20.68 24.13 20.68C16.16 20.68 9.45 26.34 7.75 33.83L27.79 53.88C35.29 52.19 40.95 45.45 40.95 37.5Z" />
</svg>