<svg xmlns="http://www.w3.org/2000/svg" viewBox="0 0 60 80" width="60" height="80">
	<style>
		tspan { white-space:pre }
		.shp0 { fill: #fba919 } 
		.shp1 { fill: #e78724 } 
		.shp2 { fill: #fdc168 } 
		.shp3 { fill: #ffffff } 
		.shp4 { fill: #c9c9c9 } 
		.shp5 { fill: #463014 } 
	</style>
	<g id="Layer">
		<path id="Layer" class="shp0" d="M4.05 19.39C4.05 19.39 5.43 24.66 5.63 26.42C5.82 28.17 2.09 32.07 2.09 34.03C2.09 35.98 2.87 39.49 7.2 41.25C11.53 43 12.12 47.49 12.12 50.23C12.12 52.96 10.54 58.23 10.54 58.23C10.54 58.23 9.56 71.3 14.87 73.64C20.18 75.99 19 75.99 20.18 75.99C21.36 75.99 30.02 79.5 35.13 78.13C40.24 76.77 41.62 75.21 41.62 75.21C41.62 75.21 46.73 75.6 48.31 71.11C49.88 66.62 50.86 57.25 50.27 52.96C49.68 48.66 48.9 43 52.44 41.05C55.98 39.1 59.71 36.76 59.12 34.81C58.53 32.86 55.39 30.12 55.39 30.12C55.39 30.12 54.6 25.24 55.19 24.07C55.78 22.9 59.32 19.97 57.35 17.83C55.39 15.68 51.85 15.68 51.85 15.68L47.32 16.07C47.32 16.07 39.65 9.24 29.62 9.63C19.59 10.02 13.3 16.07 13.3 16.07C13.3 16.07 9.95 14.9 7 16.07C4.05 17.24 3.46 16.07 4.05 19.39L4.05 19.39L4.05 19.39Z" />
		<path id="Layer" class="shp1" d="M22.03 48.45C22.03 48.45 18.13 54.36 15.27 58.55C14.83 59.2 18.13 59.24 18.13 59.24L22.03 48.45L22.03 48.45Z" />
		<path id="Layer" class="shp1" d="M23.88 36.19C23.88 36.19 22.71 39.1 22.06 40.64C21.37 42.32 18.7 43.15 18.7 43.15C18.7 43.15 20.08 41.71 20.08 38.08C20.08 36.55 22.07 35.94 22.07 35.94L23.88 36.19L23.88 36.19Z" />
		<path id="Layer" class="shp1" d="M22.69 37.84C22.69 37.84 20.29 40.68 15.82 39.09C11.36 37.5 10.9 31.81 10.9 30.22C10.9 28.63 19.37 31.81 20.52 32.5C21.66 33.18 23.84 35.91 22.69 37.84L22.69 37.84L22.69 37.84Z" />
		<path id="Layer" class="shp1" d="M5.82 7.48C5.82 7.48 9.95 6.68 12.69 8.84C15.44 11 16.25 12.71 16.25 12.71L11.61 16.35C11.61 16.35 9.37 15.32 8.69 12.36C8 9.41 8.46 8.05 5.82 7.48L5.82 7.48L5.82 7.48Z" />
		<path id="Layer" class="shp1" d="M21.49 29.63C19.72 27.13 16.79 26.04 14.45 25.86C10.47 25.55 8.58 26.95 8.58 26.95C8.58 26.95 15.1 27.22 16.98 29.67C20.48 34.23 25.59 34.6 26.41 33.6C25.46 33.65 24.42 33.18 23.31 32.14C22.62 31.49 22.06 30.42 21.49 29.63L21.49 29.63L21.49 29.63Z" />
		<path id="Layer" class="shp1" d="M10.48 38.47C10.48 38.47 3.24 36 4.62 33.5C5.99 31 4.9 29.64 4.9 29.64C4.9 29.64 0.86 32.63 1.89 35.82C2.52 37.77 3.58 39.18 9.41 41.89C12.21 47.05 9.99 56.33 10.12 56.37C10.34 56.44 14.05 54.55 13.8 45.87C13.72 43.21 13.5 39.57 10.48 38.47L10.48 38.47L10.48 38.47Z" />
		<path id="Layer" class="shp1" d="M19.96 11.92C16.93 13.45 12.77 15.58 12.77 15.58L14.41 16.4C14.25 16.65 14.18 16.8 14.18 16.8L15.86 17.56C15.86 17.56 19.96 20.5 22.47 22.4C21.63 19.84 19.17 15.82 19.17 15.82C19.17 15.82 18.48 13.97 19.96 11.92L19.96 11.92L19.96 11.92Z" />
		<path id="Layer" class="shp1" d="M30.05 74.28C20.72 74.28 17.56 69.59 17.56 69.59L19.02 73.11C19.57 74.63 25.45 79.37 30.03 79.37" />
		<path id="Layer" class="shp1" d="M18.58 66.41C18.58 66.41 19.44 71.61 22.88 71.61C25.8 71.61 26.66 67.22 26.66 66.31L18.58 66.41L18.58 66.41Z" />
		<path id="Layer" class="shp1" d="M12.86 58.56C13.17 57.73 14.24 54.36 14.58 51.29C14.99 47.61 14.84 42.24 14.84 42.24C14.84 42.24 13.92 45.76 13.12 46.33C12.32 46.9 10.83 50.76 10.83 50.76C10.83 50.76 10.03 56.51 9.65 58.45C10.71 58.66 11.59 58.04 12.86 58.56L12.86 58.56L12.86 58.56Z" />
		<path id="Layer" class="shp1" d="M4.56 35.76C4.56 35.76 6.51 35.08 7.08 30.87C7.66 26.67 6.4 23.03 6.4 23.03C6.4 23.03 6.51 28.83 5.82 29.96C5.14 31.1 4.56 31.44 3.76 32.92C2.96 34.4 4.1 35.3 4.56 35.76L4.56 35.76L4.56 35.76Z" />
		<path id="Layer" class="shp2" d="M6.89 8.47L6.49 8.22C5.32 8.26 6.89 8.47 6.89 8.47L6.89 8.47L6.89 8.47Z" />
		<path id="Layer" class="shp0" d="M21.55 10.68C21.55 10.68 19.72 10.38 18.8 9.01C17.88 7.65 15.29 4.92 11.15 4.89C7.01 4.86 2.92 5.98 2.92 5.98L6.49 8.22C6.87 8.21 7.53 8.22 8.62 8.25C13.11 8.4 13.8 12.8 13.8 12.8L29.6 10.64" />
		<path id="Layer" class="shp3" d="M23.08 34.99C23.08 34.99 20.94 37.11 17.65 36.43C14.37 35.75 12.38 34.31 12.23 31.81C12.08 29.31 12.92 28.32 12.92 28.32C12.92 28.32 16.58 29.46 18.34 30.98C20.1 32.49 21.4 34.92 23.08 34.99L23.08 34.99L23.08 34.99Z" />
		<path id="Layer" class="shp4" d="M20.49 34.23C20.49 34.23 18.63 35.08 16.56 34.39C13.85 33.49 13.67 30.69 13.67 30.69C13.67 30.69 12 35.54 16.67 36.47C20.41 37.22 22.63 35.07 22.63 35.07L20.49 34.23L20.49 34.23Z" />
		<path id="Layer" class="shp5" d="M21.81 9.65C21.61 5.49 25.04 2.18 26.23 2.04C26.3 2.75 26.16 5.49 27.35 6.34C27.7 4.1 28.87 1.62 33.5 0C32.51 2.61 33.36 4.79 33.77 5.8C36.93 2.96 39.06 3.43 39.06 3.43C39.06 3.43 36.86 7.19 37.72 9.65C31.38 9.16 21.84 10.32 21.81 9.65L21.81 9.65L21.81 9.65Z" />
		<path id="Layer" class="shp5" d="M8.37 15.98C6.85 14.74 7.98 13.58 7.86 12.17C7.8 11.41 7.74 10.7 7.49 10.31C6.09 8.13 2.81 7.47 2.78 7.46L1.24 7.16L2.26 5.98C2.39 5.83 6.58 1.86 13.06 3.94C17.6 5.39 20.96 10.31 21.08 10.51L18.81 11.57C18.78 11.53 16.12 6.9 12.23 5.66C9.09 4.65 6.19 5.61 4.95 6.23C6.27 6.76 7.99 7.71 9.03 9.34C9.52 10.11 9.61 11.08 9.69 12.02C9.79 13.26 9.89 14.43 10.81 15.19L8.37 15.98L8.37 15.98Z" />
		<path id="Layer" class="shp5" d="M4.33 34.16C4.33 34.16 6.23 31.82 6.8 27.25C7.02 25.46 6.62 21.91 5.99 20.55C6.11 23.9 5.25 27.25 5.25 27.25C5.25 27.25 4.67 33.48 4.33 34.16L4.33 34.16L4.33 34.16Z" />
		<path id="Layer" class="shp5" d="M14.38 13.61C14.37 13.61 13.76 10.96 12.07 9.63C9.68 7.74 6.77 8.74 6.74 8.75L6.32 7.46C6.46 7.41 9.79 6.37 12.86 8.51C15.95 10.66 16.32 12.62 16.35 12.83L14.38 13.61L14.38 13.61Z" />
		<path id="Layer" class="shp5" d="M10.31 32.48C10.31 32.48 9.31 31.06 9.49 29.5C9.58 28.73 9.94 27.93 10.58 27.65C11.78 27.13 12.31 28.48 12.31 28.48C12.31 28.48 10.63 28.89 10.31 32.48L10.31 32.48L10.31 32.48Z" />
		<path id="Layer" class="shp5" d="M21.29 34.64C21.33 34.72 21.35 34.76 21.35 34.76C21.35 34.76 18.23 37.09 15.04 34.73C13.33 33.47 13.49 30.34 14.01 29.02C15.38 29.33 16.53 29.88 17.5 30.52C16.28 29.44 15.21 28.65 15.21 28.63L13.82 28.24L11.13 27.32C11.09 27.52 10.11 32.1 12.95 35.22C14.21 36.6 20.11 39.7 22.91 34.4L21.29 34.64L21.29 34.64Z" />
		<path id="Layer" class="shp5" d="M21 34.98C22.75 37.64 27.18 36.12 27.11 33.32C27.11 33.32 24.15 34.94 21.53 31.95C20 30.21 15.11 25.41 8.48 27C13.06 28 19.13 32.16 21 34.98L21 34.98L21 34.98Z" />
		<path id="Layer" class="shp5" d="M7.86 42.47C8.28 42.71 9.77 44.24 9.77 46.53C9.77 47.68 9.66 53.45 9.08 56.97C9.94 57.52 10.54 57.64 11.4 58.21C11.83 54.13 12.14 48.21 12 45.83C11.83 43.1 10.36 41.28 9 40.5C8.57 40.26 8.13 40.02 7.68 39.78C5.35 38.53 2.93 37.23 2.93 35.02C2.93 33.29 3.61 32.75 4.33 32.18L4.41 32.12C4.88 31.74 5.42 31.3 5.74 30.59C6.61 28.65 6.75 23.71 5.74 22.45C5.23 21.83 3.88 19.72 4.27 18.31C4.42 17.77 4.76 17.37 5.32 17.09C5.91 16.79 6.71 16.63 7.69 16.63C9.61 16.63 11.75 17.22 12.85 17.56C16.79 18.8 21.55 22.37 22.91 23.44C22.95 23.47 22.97 23.49 22.98 23.49L23.85 24.09L23.31 23.19C23.27 23.13 19.82 17.49 13.64 15.43C12.44 15.03 10.08 14.35 7.76 14.35C6.38 14.35 5.2 14.59 4.28 15.06C3.14 15.64 2.38 16.55 2.06 17.71C1.28 20.55 3.82 23.71 3.91 23.81C4.2 24.34 4.33 28.15 3.65 29.67C3.55 29.88 3.29 30.09 2.97 30.35C2.86 30.43 2.75 30.52 2.63 30.61C1.66 31.33 0.2 32.42 0.2 34.94C0.2 38.39 3.72 40.26 6.55 41.76C7.01 42 7.46 42.24 7.86 42.47L7.86 42.47L7.86 42.47Z" />
		<path id="Layer" class="shp5" d="M8.37 15.98C6.85 14.74 7.98 13.58 7.86 12.17C7.8 11.41 7.74 10.7 7.49 10.31C6.09 8.13 2.81 7.47 2.78 7.46L1.24 7.16L2.26 5.98C2.39 5.83 6.58 1.86 13.06 3.94C17.6 5.39 20.96 10.31 21.08 10.51L18.81 11.57C18.78 11.53 16.12 6.9 12.23 5.66C9.09 4.65 6.19 5.61 4.95 6.23C6.27 6.76 7.99 7.71 9.03 9.34C9.52 10.11 9.61 11.08 9.69 12.02C9.79 13.26 9.89 14.43 10.81 15.19L8.37 15.98L8.37 15.98Z" />
		<path id="Layer" class="shp5" d="M8.32 16.24L8.22 16.16C7.1 15.23 7.3 14.32 7.49 13.44C7.58 13.04 7.67 12.62 7.63 12.19C7.57 11.46 7.51 10.78 7.29 10.43C5.97 8.36 2.76 7.69 2.73 7.69L0.81 7.31L2.08 5.83C2.11 5.8 4.8 3.11 9.35 3.11C10.59 3.11 11.87 3.31 13.13 3.72C17.87 5.23 21.24 10.34 21.27 10.39L21.41 10.6L18.72 11.86L18.61 11.69C18.32 11.2 15.77 7.03 12.16 5.87C11.28 5.59 10.34 5.44 9.39 5.44C7.66 5.44 6.26 5.91 5.51 6.23C6.76 6.78 8.27 7.72 9.23 9.22C9.75 10.03 9.83 11.03 9.92 11.99C10.02 13.19 10.11 14.31 10.96 15.01L11.28 15.27L8.32 16.24L8.32 16.24Z" />
		<path id="Layer" class="shp5" d="M14.38 13.61C14.37 13.61 13.76 10.96 12.07 9.63C9.68 7.74 6.77 8.74 6.74 8.75L6.32 7.46C6.46 7.41 9.79 6.37 12.86 8.51C15.95 10.66 16.32 12.62 16.35 12.83L14.38 13.61L14.38 13.61Z" />
		<path id="Layer" fill-rule="evenodd" class="shp5" d="M14.15 13.66C14.15 13.64 13.55 11.08 11.93 9.8C11 9.08 9.89 8.71 8.62 8.71C7.63 8.71 6.89 8.94 6.81 8.97L6.6 9.04L6.03 7.31L6.25 7.24C6.34 7.21 7.23 6.93 8.48 6.93C10.13 6.93 11.69 7.42 12.99 8.32C16.16 10.53 16.55 12.57 16.58 12.8L16.61 12.98L14.21 13.92L14.15 13.66ZM12.21 9.45C13.65 10.58 14.33 12.59 14.53 13.31L16.09 12.69C15.95 12.15 15.33 10.51 12.73 8.7C11.49 7.83 10.06 7.39 8.48 7.39C7.61 7.39 6.94 7.53 6.61 7.61L6.89 8.47C7.21 8.39 7.84 8.25 8.62 8.25C9.98 8.25 11.22 8.67 12.21 9.45Z" />
		<path id="Layer" class="shp5" d="M22.73 70.37L22.73 70.37C22.05 70.37 21.36 70.12 20.89 69.71C20.52 69.4 19.28 68.27 18.73 66.88C18.53 66.37 18.57 65.95 18.87 65.66C19.07 65.45 19.5 65.21 20.36 65.21L20.97 65.21C21.7 65.21 22.92 65.21 23.97 65.21L24.98 65.21C25.63 65.21 26.1 65.35 26.37 65.62C26.72 65.97 26.61 66.42 26.51 66.66C26.34 67.07 25.64 68.42 24.46 69.67C24.04 70.12 23.43 70.37 22.73 70.37L22.73 70.37L22.73 70.37Z" />
		<path id="Layer" class="shp5" d="M23.44 35.14L21 34.98C21 34.98 21.62 36.08 22.03 37.49C22.48 39.09 21.61 41.42 21.61 41.42C21.61 41.42 24.87 37.76 23.44 35.14L23.44 35.14L23.44 35.14Z" />
		<path id="Layer" class="shp5" d="M20.39 76.77C11.69 76.11 8.63 67.95 8.63 66.25L10.9 66.25L9.77 66.25L10.9 66.25C10.92 66.99 13.23 73.96 20.56 74.52L20.39 76.77L20.39 76.77Z" />
		<path id="Layer" class="shp3" d="M17.95 62.16C17.81 61.38 17.8 60.64 17.96 59.91C17.3 59.42 16.12 59.24 15.23 58.95C14.5 58.49 10.77 59.42 8.07 56.18C4.69 52.11 5.4 49.69 5.4 49.69C4.53 50.64 3.69 50.28 2.37 54.74C1.04 59.2 2.99 62.31 6.62 65.44C8.33 66.91 10.75 67.52 12.84 67.75C12.14 67.06 14.03 66.99 15.33 66.5C15.23 65.46 15.4 64.45 16.19 63.63C16.66 63.14 17.27 62.84 17.9 62.61C17.94 62.53 17.97 62.45 18 62.38C17.98 62.31 17.96 62.23 17.95 62.16L17.95 62.16L17.95 62.16Z" />
		<path id="Layer" class="shp4" d="M15.32 66.48C15.24 66.26 15.18 66.03 15.13 65.81C15.07 65.56 14.77 64.87 15.14 65.66C15.04 65.46 14.98 65.25 14.94 65.04C9.06 65.03 3.95 61.03 4.94 52.61C4.17 51.6 3.09 54.66 3.09 54.66C3.09 54.66 0.15 63.13 7.74 66.41C10.28 67.51 12.51 68.3 13.04 67.98C14.14 68.2 15.13 67.44 15.5 66.94C15.44 66.79 15.37 66.63 15.32 66.48L15.32 66.48L15.32 66.48Z" />
		<path id="Layer" class="shp5" d="M17.84 60.94C17.85 60.23 18 59.54 18.34 58.85C18.37 58.81 18.39 58.76 18.42 58.72C16.16 58.7 13.56 58.48 11.34 57.6C8.9 56.63 5.85 53.32 5.33 49.44C5.33 49.44 0.74 52.95 2.09 60.47C3.35 67.54 9.31 69.84 16.1 70.23C16.11 70.18 15.34 68.61 15.58 67.65C11.72 67.92 7.41 66.45 5.33 63.05C3.42 59.93 3.96 54.62 4.74 53.84C6.65 59.83 13.53 61.04 17.84 60.94L17.84 60.94L17.84 60.94Z" />
		<path id="Layer" class="shp5" d="M18.55 56.65C17.33 60.21 14.83 63.09 14.83 63.09C14.83 63.09 18.27 62.94 18.46 62.34C18.6 61.89 21.56 55.01 22.7 46.96C21.63 48.7 18.66 56.35 18.55 56.65L18.55 56.65L18.55 56.65Z" />
		<path id="Layer" class="shp1" d="M38.01 48.45C38.01 48.45 41.91 54.36 44.77 58.55C45.21 59.2 41.91 59.24 41.91 59.24L38.01 48.45L38.01 48.45Z" />
		<path id="Layer" class="shp1" d="M36.16 36.19C36.16 36.19 37.33 39.1 37.98 40.64C38.67 42.32 41.34 43.15 41.34 43.15C41.34 43.15 39.96 41.71 39.96 38.08C39.96 36.55 37.97 35.94 37.97 35.94L36.16 36.19L36.16 36.19Z" />
		<path id="Layer" class="shp1" d="M37.35 37.84C37.35 37.84 39.75 40.68 44.22 39.09C48.69 37.5 49.14 31.81 49.14 30.22C49.14 28.63 40.67 31.81 39.52 32.5C38.38 33.18 36.2 35.91 37.35 37.84L37.35 37.84L37.35 37.84Z" />
		<path id="Layer" class="shp1" d="M54.22 7.48C54.22 7.48 50.09 6.68 47.34 8.84C44.6 11 43.79 12.71 43.79 12.71L48.43 16.35C48.43 16.35 50.67 15.32 51.35 12.36C52.04 9.41 51.58 8.05 54.22 7.48L54.22 7.48L54.22 7.48Z" />
		<path id="Layer" class="shp1" d="M38.55 29.63C40.32 27.13 43.25 26.04 45.59 25.86C49.57 25.55 51.46 26.95 51.46 26.95C51.46 26.95 44.94 27.22 43.05 29.67C39.55 34.23 34.45 34.6 33.63 33.6C34.58 33.65 35.62 33.18 36.73 32.14C37.42 31.49 37.99 30.42 38.55 29.63L38.55 29.63L38.55 29.63Z" />
		<path id="Layer" class="shp1" d="M49.56 38.47C49.56 38.47 56.8 36 55.42 33.5C54.05 31 55.14 29.64 55.14 29.64C55.14 29.64 59.18 32.63 58.15 35.82C57.52 37.77 56.46 39.18 50.63 41.89C47.83 47.05 50.05 56.33 49.92 56.37C49.7 56.44 45.99 54.55 46.24 45.87C46.32 43.21 46.54 39.57 49.56 38.47L49.56 38.47L49.56 38.47Z" />
		<path id="Layer" class="shp1" d="M40.08 11.92C43.11 13.45 47.27 15.58 47.27 15.58L45.63 16.4C45.79 16.65 45.86 16.8 45.86 16.8L44.18 17.56C44.18 17.56 40.08 20.5 37.57 22.4C38.41 19.84 40.87 15.82 40.87 15.82C40.87 15.82 41.57 13.97 40.08 11.92L40.08 11.92L40.08 11.92Z" />
		<path id="Layer" class="shp1" d="M29.99 74.28C39.32 74.28 42.48 69.59 42.48 69.59L41.02 73.11C40.47 74.63 34.59 79.37 30.01 79.37" />
		<path id="Layer" class="shp1" d="M41.46 66.41C41.46 66.41 40.6 71.61 37.16 71.61C34.25 71.61 33.38 67.22 33.38 66.31L41.46 66.41L41.46 66.41Z" />
		<path id="Layer" class="shp1" d="M47.18 58.56C46.87 57.73 45.8 54.36 45.46 51.29C45.05 47.61 45.2 42.24 45.2 42.24C45.2 42.24 46.12 45.76 46.92 46.33C47.72 46.9 49.21 50.76 49.21 50.76C49.21 50.76 50 56.51 50.38 58.45C49.33 58.66 48.45 58.04 47.18 58.56L47.18 58.56L47.18 58.56Z" />
		<path id="Layer" class="shp1" d="M55.48 35.76C55.48 35.76 53.53 35.08 52.96 30.87C52.38 26.67 53.64 23.03 53.64 23.03C53.64 23.03 53.53 28.83 54.22 29.96C54.9 31.1 55.48 31.44 56.28 32.92C57.08 34.4 55.93 35.3 55.48 35.76L55.48 35.76L55.48 35.76Z" />
		<path id="Layer" class="shp2" d="M53.15 8.47L53.55 8.22C54.72 8.26 53.15 8.47 53.15 8.47L53.15 8.47L53.15 8.47Z" />
		<path id="Layer" class="shp0" d="M38.49 10.68C38.49 10.68 40.32 10.38 41.24 9.01C42.16 7.65 44.75 4.92 48.89 4.89C53.03 4.86 57.12 5.98 57.12 5.98L53.55 8.22C53.17 8.21 52.51 8.22 51.42 8.25C46.93 8.4 46.24 12.8 46.24 12.8L30.44 10.64" />
		<path id="Layer" class="shp3" d="M36.96 34.99C36.96 34.99 39.1 37.11 42.39 36.43C45.67 35.75 47.66 34.31 47.81 31.81C47.96 29.31 47.12 28.32 47.12 28.32C47.12 28.32 43.45 29.46 41.7 30.98C39.94 32.49 38.64 34.92 36.96 34.99L36.96 34.99L36.96 34.99Z" />
		<path id="Layer" class="shp4" d="M39.55 34.23C39.55 34.23 41.41 35.08 43.48 34.39C46.19 33.49 46.37 30.69 46.37 30.69C46.37 30.69 48.04 35.54 43.37 36.47C39.63 37.22 37.41 35.07 37.41 35.07L39.55 34.23L39.55 34.23Z" />
		<path id="Layer" class="shp5" d="M51.67 15.98C53.19 14.74 52.06 13.58 52.18 12.17C52.24 11.41 52.3 10.7 52.55 10.31C53.95 8.13 57.23 7.47 57.26 7.46L58.81 7.16L57.78 5.98C57.65 5.83 53.46 1.86 46.98 3.94C42.44 5.39 39.09 10.31 38.96 10.51L41.23 11.57C41.26 11.53 43.92 6.9 47.81 5.66C50.95 4.65 53.85 5.61 55.09 6.23C53.77 6.76 52.05 7.71 51.01 9.34C50.52 10.11 50.43 11.08 50.35 12.02C50.25 13.26 50.15 14.43 49.23 15.19L51.67 15.98L51.67 15.98Z" />
		<path id="Layer" class="shp5" d="M55.71 34.16C55.71 34.16 53.81 31.82 53.24 27.25C53.02 25.46 53.42 21.91 54.05 20.55C53.93 23.9 54.79 27.25 54.79 27.25C54.79 27.25 55.37 33.48 55.71 34.16L55.71 34.16L55.71 34.16Z" />
		<path id="Layer" class="shp5" d="M45.67 13.61C45.67 13.61 46.28 10.96 47.97 9.63C50.36 7.74 53.27 8.74 53.3 8.75L53.72 7.46C53.58 7.41 50.25 6.37 47.18 8.51C44.09 10.66 43.72 12.62 43.69 12.83L45.67 13.61L45.67 13.61Z" />
		<path id="Layer" class="shp5" d="M49.73 32.48C49.73 32.48 50.73 31.06 50.55 29.5C50.46 28.73 50.1 27.93 49.46 27.65C48.26 27.13 47.73 28.48 47.73 28.48C47.73 28.48 49.41 28.89 49.73 32.48L49.73 32.48L49.73 32.48Z" />
		<path id="Layer" class="shp5" d="M38.75 34.64C38.71 34.72 38.69 34.76 38.69 34.76C38.69 34.76 41.8 37.09 45 34.73C46.71 33.47 46.55 30.34 46.03 29.02C44.66 29.33 43.51 29.88 42.54 30.52C43.76 29.44 44.83 28.65 44.83 28.63L46.22 28.24L48.91 27.32C48.95 27.53 49.93 32.1 47.09 35.22C45.83 36.6 39.93 39.7 37.13 34.4L38.75 34.64L38.75 34.64Z" />
		<path id="Layer" class="shp5" d="M39.04 34.98C37.29 37.64 32.86 36.12 32.93 33.32C32.93 33.32 35.89 34.94 38.51 31.95C40.03 30.21 44.93 25.41 51.56 27C46.98 28 40.91 32.16 39.04 34.98L39.04 34.98L39.04 34.98Z" />
		<path id="Layer" class="shp5" d="M52.18 42.47C51.76 42.71 50.27 44.24 50.27 46.53C50.27 47.68 50.38 53.45 50.96 56.97C50.1 57.52 49.5 57.64 48.64 58.21C48.21 54.13 47.9 48.21 48.05 45.83C48.21 43.1 49.68 41.28 51.04 40.5C51.47 40.26 51.91 40.02 52.36 39.78C54.69 38.53 57.11 37.23 57.11 35.02C57.11 33.29 56.43 32.75 55.71 32.18L55.64 32.12C55.16 31.74 54.62 31.3 54.3 30.59C53.43 28.65 53.29 23.71 54.3 22.45C54.81 21.83 56.16 19.72 55.77 18.31C55.62 17.77 55.28 17.37 54.72 17.09C54.13 16.79 53.34 16.63 52.35 16.63C50.43 16.63 48.29 17.22 47.19 17.56C43.25 18.8 38.49 22.37 37.13 23.44C37.09 23.47 37.07 23.49 37.06 23.49L36.19 24.09L36.73 23.19C36.77 23.13 40.22 17.49 46.4 15.43C47.6 15.03 49.96 14.35 52.28 14.35C53.66 14.35 54.83 14.59 55.76 15.06C56.9 15.64 57.66 16.55 57.98 17.71C58.76 20.55 56.22 23.71 56.13 23.81C55.84 24.34 55.71 28.15 56.39 29.67C56.49 29.88 56.75 30.09 57.07 30.35C57.18 30.43 57.29 30.52 57.41 30.61C58.38 31.33 59.84 32.42 59.84 34.94C59.84 38.39 56.32 40.26 53.49 41.76C53.03 42 52.58 42.24 52.18 42.47L52.18 42.47L52.18 42.47Z" />
		<path id="Layer" class="shp5" d="M47.99 15.58C47.43 14.64 45.99 12.82 42.7 11.22C39.01 9.44 34.75 8.54 30.03 8.54L30.03 8.54L30.02 8.54L30.01 8.54L30.01 8.54C25.29 8.54 21.02 9.44 17.34 11.22C14.04 12.82 12.61 14.64 12.05 15.58L11.81 15.89L14.64 16.52L14.73 16.4L14.78 16.3C14.82 16.12 15.2 15.12 18.35 13.59C21.71 11.96 25.64 11.14 30.02 11.14C34.4 11.14 38.32 11.96 41.69 13.59C44.84 15.12 45.22 16.12 45.26 16.3L45.31 16.4L45.4 16.52L48.22 15.89L47.99 15.58L47.99 15.58Z" />
		<path id="Layer" class="shp5" d="M51.67 15.98C53.19 14.74 52.06 13.58 52.18 12.17C52.24 11.41 52.3 10.7 52.55 10.31C53.95 8.13 57.23 7.47 57.26 7.46L58.81 7.16L57.78 5.98C57.65 5.83 53.46 1.86 46.98 3.94C42.44 5.39 39.09 10.31 38.96 10.51L41.23 11.57C41.26 11.53 43.92 6.9 47.81 5.66C50.95 4.65 53.85 5.61 55.09 6.23C53.77 6.76 52.05 7.71 51.01 9.34C50.52 10.11 50.43 11.08 50.35 12.02C50.25 13.26 50.15 14.43 49.23 15.19L51.67 15.98L51.67 15.98Z" />
		<path id="Layer" class="shp5" d="M48.76 15.28L49.08 15.01C49.93 14.32 50.02 13.19 50.13 11.99C50.21 11.03 50.29 10.03 50.81 9.22C51.77 7.72 53.28 6.78 54.53 6.23C53.78 5.91 52.38 5.44 50.65 5.44C49.7 5.44 48.76 5.59 47.88 5.87C44.27 7.03 41.72 11.2 41.43 11.69L41.32 11.86L38.63 10.61L38.77 10.39C38.8 10.34 42.17 5.23 46.91 3.72C48.17 3.31 49.45 3.11 50.69 3.11C55.25 3.11 57.94 5.8 57.96 5.83L59.24 7.31L57.31 7.69C57.28 7.69 54.07 8.36 52.75 10.44C52.53 10.78 52.47 11.46 52.41 12.19C52.37 12.62 52.46 13.04 52.55 13.45C52.74 14.33 52.94 15.24 51.82 16.16L51.72 16.24L48.76 15.28L48.76 15.28Z" />
		<path id="Layer" class="shp5" d="M45.67 13.61C45.67 13.61 46.28 10.96 47.97 9.63C50.36 7.74 53.27 8.74 53.3 8.75L53.72 7.46C53.58 7.41 50.25 6.37 47.18 8.51C44.09 10.66 43.72 12.62 43.69 12.83L45.67 13.61L45.67 13.61Z" />
		<path id="Layer" fill-rule="evenodd" class="shp5" d="M43.46 12.8C43.49 12.57 43.88 10.53 47.05 8.32C48.35 7.42 49.91 6.93 51.56 6.93C52.81 6.93 53.7 7.21 53.8 7.24L54.01 7.31L53.45 9.04L53.23 8.97C53.14 8.94 52.41 8.71 51.42 8.71C50.15 8.71 49.04 9.08 48.11 9.8C46.49 11.08 45.9 13.64 45.89 13.66L45.83 13.92L43.43 12.98L43.46 12.8ZM53.43 7.61C53.1 7.53 52.43 7.39 51.56 7.39C49.98 7.39 48.55 7.83 47.31 8.7C44.71 10.51 44.09 12.15 43.95 12.69L45.51 13.31C45.71 12.59 46.39 10.58 47.83 9.45C48.82 8.67 50.06 8.25 51.42 8.25C52.2 8.25 52.83 8.39 53.15 8.47L53.43 7.61Z" />
		<path id="Layer" class="shp5" d="M35.58 69.67C34.4 68.42 33.7 67.07 33.53 66.66C33.43 66.42 33.32 65.97 33.67 65.62C33.94 65.35 34.41 65.21 35.06 65.21L36.07 65.21C37.12 65.21 38.34 65.21 39.07 65.21L39.68 65.21C40.54 65.21 40.97 65.45 41.17 65.66C41.47 65.95 41.51 66.37 41.31 66.88C40.76 68.27 39.52 69.4 39.16 69.71C38.68 70.12 37.99 70.37 37.31 70.37L37.31 70.37C36.62 70.37 36 70.12 35.58 69.67L35.58 69.67L35.58 69.67Z" />
		<path id="Layer" class="shp5" d="M36.6 35.14L39.04 34.98C39.04 34.98 38.42 36.08 38.01 37.49C37.56 39.09 38.43 41.42 38.43 41.42C38.43 41.42 35.17 37.76 36.6 35.14L36.6 35.14L36.6 35.14Z" />
		<path id="Layer" class="shp1" d="M30.02 26.48C28.46 26.48 26.43 26.44 24.91 25.35C24.91 25.35 26.9 28.82 30.02 28.82L30.02 28.39L30.02 28.82C33.14 28.82 35.13 25.35 35.13 25.35C33.61 26.44 31.58 26.48 30.02 26.48L30.02 26.48L30.02 26.48Z" />
		<path id="Layer" class="shp5" d="M34.31 26.47C32.75 27.41 31.35 27.73 30.02 27.76C28.69 27.73 27.29 27.41 25.73 26.47C25.73 26.47 28.01 29.22 30.01 29.24L30.01 29.24C30.01 29.24 30.02 29.24 30.02 29.24C30.02 29.24 30.03 29.24 30.03 29.24L30.03 29.24C32.03 29.22 34.31 26.47 34.31 26.47L34.31 26.47L34.31 26.47Z" />
		<path id="Layer" class="shp5" d="M39.65 76.77L39.48 74.52C46.81 73.96 49.12 66.99 49.13 66.25L51.41 66.25C51.41 67.95 48.35 76.11 39.65 76.77L39.65 76.77L39.65 76.77Z" />
		<path id="Layer" class="shp3" d="M42.09 62.16C42.23 61.38 42.24 60.64 42.08 59.91C42.74 59.42 43.92 59.24 44.81 58.95C45.54 58.49 49.27 59.42 51.97 56.18C55.35 52.11 54.64 49.69 54.64 49.69C55.51 50.64 56.35 50.28 57.67 54.74C59 59.2 57.05 62.31 53.42 65.44C51.71 66.91 49.29 67.52 47.2 67.75C47.9 67.06 46.01 66.99 44.71 66.5C44.81 65.46 44.64 64.45 43.85 63.63C43.38 63.14 42.77 62.84 42.14 62.61C42.1 62.53 42.07 62.45 42.04 62.38C42.06 62.31 42.08 62.23 42.09 62.16L42.09 62.16L42.09 62.16Z" />
		<path id="Layer" class="shp4" d="M44.72 66.48C44.8 66.26 44.85 66.03 44.91 65.81C44.97 65.56 45.27 64.87 44.9 65.66C45 65.46 45.06 65.25 45.1 65.04C50.98 65.03 56.09 61.03 55.1 52.61C55.87 51.6 56.95 54.66 56.95 54.66C56.95 54.66 59.89 63.13 52.29 66.41C49.76 67.51 47.53 68.3 47 67.98C45.9 68.2 44.91 67.44 44.53 66.94C44.6 66.79 44.67 66.63 44.72 66.48L44.72 66.48L44.72 66.48Z" />
		<path id="Layer" class="shp5" d="M42.2 60.94C42.19 60.23 42.04 59.54 41.7 58.85C41.67 58.81 41.65 58.76 41.62 58.72C43.88 58.7 46.48 58.48 48.7 57.6C51.14 56.63 54.19 53.32 54.71 49.44C54.71 49.44 59.3 52.95 57.95 60.47C56.69 67.54 50.73 69.84 43.94 70.23C43.93 70.18 44.7 68.61 44.46 67.65C48.31 67.92 52.63 66.45 54.71 63.05C56.62 59.93 56.08 54.62 55.3 53.84C53.39 59.83 46.51 61.04 42.2 60.94L42.2 60.94L42.2 60.94Z" />
		<path id="Layer" fill-rule="evenodd" class="shp5" d="M44.94 62.71C46.12 63.98 46.31 65.74 45.49 67.94C43.32 73.81 40.26 79.76 30.03 79.77L30.03 79.77C30.03 79.77 30.02 79.77 30.02 79.77C30.02 79.77 30.01 79.77 30.01 79.77L30.01 79.77C19.78 79.77 16.72 73.81 14.55 67.94C13.73 65.74 13.92 63.98 15.1 62.71C15.91 61.84 17.4 60.8 20.84 60.8C20.84 60.8 27.37 60.8 30.01 60.8L30.03 60.8C32.67 60.8 39.2 60.8 39.2 60.8C42.64 60.8 44.13 61.84 44.94 62.71ZM43.35 67.53C43.92 65.9 43.88 64.69 43.22 63.94C42.76 63.42 41.72 62.81 39.35 62.81L36.87 62.81C35.04 62.81 32.74 62.81 30.02 62.81C27.3 62.81 25 62.81 23.17 62.81L20.69 62.81C18.32 62.81 17.28 63.42 16.82 63.94C16.16 64.69 16.12 65.9 16.69 67.53C17.73 70.48 20.51 77.6 30.02 77.62C39.53 77.6 42.31 70.48 43.35 67.53Z" />
		<path id="Layer" class="shp5" d="M41.49 56.65C42.71 60.21 45.21 63.09 45.21 63.09C45.21 63.09 41.77 62.94 41.58 62.34C41.44 61.89 38.48 55.01 37.34 46.96C38.41 48.7 41.38 56.35 41.49 56.65L41.49 56.65L41.49 56.65Z" />
	</g>
</svg>