<svg xmlns="http://www.w3.org/2000/svg" viewBox="0 0 41 90" width="41" height="90">
	<style>
		tspan { white-space:pre }
		.shp0 { fill: #d34a47 } 
		.shp1 { fill: #ffffff } 
	</style>
	<g id="Layer">
		<path id="Layer" class="shp0" d="M31.59 87.26L32.46 72.88L34.87 68.81C34.87 68.81 29.41 71.03 20.25 71.03C11.11 71.03 5.73 68.85 5.73 68.85L8.42 73.29L9.37 87.26C9.37 88.75 14.35 89.97 20.48 89.97C26.62 89.97 31.59 88.75 31.59 87.26Z" />
		<path id="Layer" class="shp0" d="M28.86 20.11L30.68 12.95L40.78 2.39L38.12 0.14L27.42 11.38L25.31 19.94C23.77 19.89 22.16 19.86 20.52 19.86C9.26 19.86 0.12 21.14 0.12 22.7C0.12 24.28 9.26 25.56 20.52 25.56C31.78 25.56 40.92 24.28 40.92 22.7C40.92 21.55 35.97 20.55 28.86 20.11Z" />
		<path id="Layer" class="shp1" d="M27.79 24.11C27.79 24.11 27.4 24.2 26.23 24.21C25.08 24.21 24.25 24.2 23.92 23.9C23.83 23.82 23.78 23.67 23.78 23.56C23.78 23.35 23.93 23.24 24.12 23.16L24.29 23.43C24.21 23.46 24.17 23.49 24.17 23.52C24.17 23.68 25.36 23.78 26.27 23.77C27.18 23.76 28.28 23.69 28.28 23.54C28.28 23.49 28.2 23.45 28.05 23.41L28.22 23.14C28.46 23.21 28.67 23.35 28.67 23.59C28.67 24.01 28.13 24.07 27.79 24.11Z" />
		<path id="Layer" class="shp0" d="M40.76 2.42C41.02 2.12 40.63 1.38 39.9 0.75C39.17 0.12 38.38 -0.15 38.12 0.14C37.87 0.43 38.25 1.18 38.98 1.81C39.71 2.43 40.51 2.71 40.76 2.42Z" />
		<path id="Layer" class="shp0" d="M31.11 52.14C30.87 49.85 36.15 46.53 34.79 46.43C31.88 46.6 30.43 49.82 28.96 53.21C28.42 54.44 26.58 59.72 25.38 59.08C24.17 58.42 26.94 54.08 27.72 51.5C26.82 52.15 23.53 54.69 22.69 52.31C21.33 53.46 18.42 54.08 18.75 51.06C18.02 52.34 16.39 54.12 14.45 53.38C11.88 52.41 15.93 44.3 16.93 44.72C17.94 45.12 16.74 46.97 16.42 47.68C15.72 49.26 14.92 51.24 15.45 51.66C16.38 52.35 18.88 49.02 18.93 48.95C19.4 48.33 20.74 44.31 21.81 44.77C22.89 45.24 19.13 50.55 20.54 51.6C20.82 51.81 21.98 51.47 22.69 50.71C23.14 50.22 22.98 49.14 24.51 45.53C26.04 41.93 27.39 37.44 28.43 37.78C29.48 38.12 28.62 40.42 28.24 41.28C26.49 45.32 23.44 51.97 24.88 51.47C26.31 50.97 27.06 50.94 28.46 49.31C29.86 47.68 29.8 44.98 30.73 45.04C31.68 45.1 31.51 45.96 31.29 46.62C32.21 45.58 35.65 43.37 36.48 45.55C37.47 48.14 31.55 51.87 33.03 51.67C34.47 51.49 36.8 50.03 37.79 48.7L40.53 24.27C40.53 24.27 37.78 26.53 20.25 26.53C2.73 26.53 0.26 24.32 0.26 24.32L2.6 46.61C3.83 43.12 6.77 36.06 11.4 36.3C13.51 36.41 16.32 40.44 13.91 40.57C12.89 40.63 12.78 38.56 11.58 38.25C10.71 38.04 9.5 38.74 8.71 39.5C7.15 41.02 3.79 47.01 4.23 50C4.8 53.81 9.52 48.67 10.32 47.15C10.89 46.08 11.27 42.9 12.5 43.23C13.73 43.56 12.39 46.85 11.5 49.75C10.5 53.01 9.97 56.44 8.71 56.05C7.45 55.65 9.5 51.45 9.43 50.71C8.25 51.79 6.07 54.54 3.28 53.18L4.73 67.02C4.73 67.02 8.58 70.04 20.16 70.04C31.74 70.04 35.74 67.07 35.74 67.07L37.53 51.03C36.06 52.45 31.41 54.98 31.11 52.14Z" />
	</g>
</svg>