<svg xmlns="http://www.w3.org/2000/svg" viewBox="0 0 100 79" width="100" height="79">
	<style>
		tspan { white-space:pre }
		.shp0 { fill: none } 
		.shp1 { fill: #5d87a1 } 
		.shp2 { fill: #f8981d } 
	</style>
	<path id="Layer" class="shp0" d="M-6.15 0.34L106.29 0.34L106.29 78.45L-6.15 78.45L-6.15 0.34Z" />
	<path id="Layer" class="shp1" d="M28.27 63.43L25.22 63.43C25.12 58.28 24.82 53.43 24.33 48.9L24.31 48.9L19.67 63.43L17.35 63.43L12.75 48.9L12.72 48.9C12.38 53.25 12.16 58.1 12.07 63.43L9.3 63.43C9.48 56.94 9.93 50.87 10.65 45.2L14.42 45.2L18.81 58.59L18.84 58.59L23.26 45.2L26.87 45.2C27.66 51.84 28.12 57.92 28.27 63.43M41.47 49.98C40.23 56.72 38.59 61.62 36.56 64.67C34.98 67.03 33.25 68.2 31.36 68.2C30.86 68.2 30.24 68.05 29.51 67.75L29.51 66.13C29.87 66.18 30.29 66.21 30.77 66.21C31.65 66.21 32.36 65.96 32.9 65.48C33.55 64.88 33.87 64.22 33.87 63.48C33.87 62.97 33.62 61.94 33.12 60.37L29.78 49.98L32.77 49.98L35.16 57.75C35.7 59.52 35.93 60.75 35.84 61.45C37.15 57.94 38.06 54.12 38.59 49.98L41.47 49.98L41.47 49.98L41.47 49.98Z" />
	<path id="Layer" fill-rule="evenodd" class="shp2" d="M81.99 63.43L73.34 63.43L73.34 45.2L76.25 45.2L76.25 61.18L81.99 61.18L81.99 63.43ZM69.89 65.91L65.54 63.37C64.82 63.59 64.02 63.69 63.16 63.69C60.84 63.69 59.11 63.02 57.96 61.67C56.7 60.18 56.07 57.83 56.07 54.62C56.07 51.36 56.78 48.9 58.2 47.22C59.49 45.69 61.3 44.93 63.62 44.93C68.34 44.93 70.7 47.94 70.7 53.97C70.7 57.25 69.99 59.73 68.57 61.4C68.32 61.7 68.03 61.97 67.74 62.21L71.08 63.87L69.89 65.91ZM60.25 59.78C60.93 60.88 62 61.43 63.45 61.43C66.24 61.43 67.63 59.11 67.63 54.49C67.63 51.89 67.26 50 66.52 48.81C65.84 47.72 64.78 47.17 63.32 47.17C60.53 47.17 59.14 49.47 59.14 54.06C59.14 56.68 59.51 58.59 60.25 59.78ZM54.8 58.37C54.8 59.92 54.24 61.19 53.11 62.18C51.97 63.17 50.46 63.67 48.56 63.67C46.78 63.67 45.05 63.1 43.38 61.96L44.16 60.4C45.6 61.12 46.9 61.48 48.07 61.48C49.16 61.48 50.02 61.23 50.64 60.75C51.26 60.27 51.63 59.59 51.63 58.73C51.63 57.64 50.88 56.72 49.5 55.94C48.22 55.24 45.67 53.77 45.67 53.77C44.29 52.77 43.6 51.68 43.6 49.9C43.6 48.42 44.12 47.23 45.15 46.32C46.18 45.41 47.51 44.95 49.15 44.95C50.84 44.95 52.37 45.41 53.75 46.31L53.05 47.87C51.87 47.37 50.7 47.12 49.55 47.12C48.62 47.12 47.9 47.34 47.4 47.79C46.9 48.24 46.58 48.82 46.58 49.52C46.58 50.6 47.35 51.54 48.77 52.33C50.07 53.03 52.68 54.52 52.68 54.52C54.1 55.53 54.8 56.6 54.8 58.37Z" />
	<path id="Layer" fill-rule="evenodd" class="shp1" d="M85.64 39.09C85.58 38.65 84.48 38.1 84.13 37.84C83.42 37.33 82.68 36.8 81.93 36.34C81.54 36.09 80.85 35.92 80.41 35.72C79.82 35.48 78.5 35.24 78.17 34.77C77.51 33.92 77.07 32.86 76.61 31.82C76.15 30.77 75.58 29.67 75.12 28.59C74.88 28.06 74.76 27.59 74.5 27.09C72.9 23.98 70.53 21.38 67.65 19.56C66.7 18.96 65.65 18.41 64.48 18.04C63.82 17.84 63.03 17.95 62.33 17.8L61.87 17.8C61.47 17.68 61.14 17.27 60.83 17.05C60.15 16.58 59.47 16.27 58.66 15.94C58.37 15.81 57.56 15.51 57.28 15.75C57.1 15.79 57.01 15.86 56.97 16.03C56.79 16.3 56.95 16.69 57.05 16.94C57.39 17.64 57.85 18.06 58.27 18.65C58.64 19.18 59.1 19.78 59.36 20.35C59.93 21.58 60.2 22.95 60.72 24.18C60.92 24.64 61.23 25.17 61.52 25.59C61.76 25.92 62.2 26.16 62.33 26.58C62.59 27.02 61.93 28.48 61.78 28.94C61.21 30.74 61.32 33.26 61.98 34.82C62.24 35.44 62.49 36.16 63.19 36.34L63.27 36.3C63.43 35.08 63.47 33.92 63.89 32.97C64.13 32.37 64.61 31.95 64.94 31.47C65.16 31.6 65.16 32 65.3 32.26C65.58 32.95 65.89 33.69 66.24 34.38C66.96 35.79 67.78 37.15 68.7 38.39C69.01 38.83 69.45 39.31 69.84 39.71C70.02 39.86 70.21 39.95 70.35 40.15L70.39 40.15L70.39 40.21C69.73 39.97 69.32 39.29 68.79 38.89C67.8 38.14 66.61 37.02 65.93 35.94C65.65 35.32 65.34 34.73 65.03 34.11L65.03 34.07C64.9 34.25 64.94 34.42 64.88 34.69C64.59 35.79 64.81 37.04 63.82 37.44C62.7 37.9 61.87 36.69 61.52 36.14C60.39 34.31 60.09 31.23 60.88 28.74C61.05 28.19 61.08 27.53 61.38 27.09C61.32 26.69 61.01 26.58 60.83 26.34C60.52 25.92 60.26 25.44 60.02 24.98C59.56 24.07 59.23 22.99 58.88 22.02C58.72 21.63 58.68 21.23 58.52 20.86C58.26 20.28 57.78 19.71 57.41 19.2C56.9 18.48 55.43 17.07 56.02 15.64C56.94 13.37 60.17 15.09 61.43 15.88C61.73 16.08 62.09 16.5 62.44 16.65L64.09 16.74C65.12 16.98 66.08 17.18 66.9 17.64C70.68 19.87 73.14 22.13 75.4 25.88C75.88 26.67 76.13 27.53 76.52 28.39C77.07 29.67 77.69 31.01 78.32 32.22C78.61 32.79 78.83 33.43 79.22 33.92C79.38 34.14 79.82 34.2 80.08 34.33C80.81 34.71 81.69 34.99 82.37 35.44C83.64 36.23 84.88 37.18 85.99 38.15C86.41 38.52 86.7 39.05 87.09 39.44L87.09 39.64C86.74 39.75 86.39 39.86 86.04 39.95C85.27 40.15 84.59 40.1 83.84 40.3C83.38 40.44 82.81 40.61 82.32 40.66L82.37 40.7C82.65 41.51 84.19 42.17 84.9 42.66C85.75 43.28 86.54 44.03 87.18 44.88L87.84 45.52C87.99 45.74 88.04 46.03 88.19 46.23L88.19 46.29C87.88 46.18 87.73 45.9 87.49 45.72C87 45.39 86.52 44.99 86.04 44.69C85.2 44.16 84.24 43.85 83.38 43.32C82.9 43.01 82.43 42.66 81.97 42.31C81.55 42 81.09 41.41 80.83 40.97C80.68 40.72 80.66 40.44 80.48 40.26C80.52 39.84 81.05 39.84 81.38 39.71C82.52 39.22 83.88 39.05 85.64 39.09ZM63.23 19.95C63.4 20.13 63.69 20.24 63.82 20.46C63.93 20.61 63.95 20.77 64.08 20.92C64.08 21.45 63.93 21.8 63.62 22.02L63.58 22.07C63.4 21.71 63.25 21.36 63.07 21.01C62.85 20.7 62.55 20.46 62.37 20.11L62.33 20.11L62.33 20.06C62.4 20.04 62.47 20.03 62.55 20.01C62.62 20 62.7 19.99 62.77 19.98C62.85 19.97 62.92 19.96 63 19.96C63.07 19.95 63.15 19.95 63.23 19.95Z" />
	<path id="Layer" class="shp2" d="M87.73 63.42L88.19 63.42L88.19 61.19L87.51 61.19L86.95 62.71L86.34 61.19L85.69 61.19L85.69 63.42L86.12 63.42L86.12 61.72L86.14 61.72L86.77 63.42L87.1 63.42L87.73 61.72L87.73 63.42ZM84.07 63.42L84.55 63.42L84.55 61.57L85.18 61.57L85.18 61.19L83.41 61.19L83.41 61.57L84.07 61.57L84.07 63.42Z" />
</svg>