<svg xmlns="http://www.w3.org/2000/svg" viewBox="0 0 140 98" width="140" height="98">
	<style>
		tspan { white-space:pre }
		.shp0 { fill: none } 
		.shp1 { fill: #5d87a1 } 
		.shp2 { fill: #f8981d } 
	</style>
	<path id="Layer" class="shp0" d="M0.4 0.42L139.78 0.42L139.78 97.32L0.4 97.32L0.4 0.42Z" />
	<path id="Layer" class="shp1" d="M43.06 78.68L39.29 78.68C39.15 72.29 38.79 66.29 38.19 60.66L38.15 60.66L32.41 78.68L29.53 78.68L23.82 60.66L23.79 60.66C23.37 66.06 23.1 72.07 22.99 78.68L19.55 78.68C19.77 70.64 20.33 63.1 21.22 56.07L25.89 56.07L31.34 72.68L31.37 72.68L36.85 56.07L41.32 56.07C42.3 64.31 42.88 71.85 43.06 78.68M59.42 62C57.89 70.36 55.86 76.43 53.35 80.23C51.39 83.15 49.24 84.61 46.9 84.61C46.28 84.61 45.51 84.42 44.6 84.05L44.6 82.03C45.04 82.09 45.56 82.13 46.16 82.13C47.26 82.13 48.14 81.83 48.8 81.22C49.61 80.49 50.01 79.66 50.01 78.75C50.01 78.12 49.69 76.84 49.07 74.89L44.93 62L48.64 62L51.61 71.64C52.28 73.83 52.56 75.36 52.44 76.23C54.07 71.88 55.2 67.13 55.85 62L59.42 62L59.42 62L59.42 62Z" />
	<path id="Layer" fill-rule="evenodd" class="shp2" d="M109.65 78.68L98.93 78.68L98.93 56.07L102.54 56.07L102.54 75.9L109.65 75.9L109.65 78.68ZM94.66 81.77L89.26 78.62C88.37 78.88 87.38 79.01 86.31 79.01C83.44 79.01 81.29 78.17 79.86 76.5C78.3 74.65 77.52 71.73 77.52 67.76C77.52 63.72 78.4 60.66 80.16 58.58C81.77 56.68 84.01 55.73 86.88 55.73C92.73 55.73 95.66 59.47 95.66 66.95C95.66 71.02 94.78 74.09 93.02 76.17C92.7 76.54 92.35 76.87 91.98 77.17L96.13 79.23L94.66 81.77ZM82.7 74.16C83.55 75.52 84.87 76.2 86.68 76.2C90.13 76.2 91.85 73.33 91.85 67.59C91.85 64.37 91.4 62.03 90.48 60.55C89.64 59.19 88.32 58.51 86.51 58.51C83.06 58.51 81.33 61.36 81.33 67.06C81.33 70.32 81.79 72.68 82.7 74.16ZM75.95 72.41C75.95 74.33 75.25 75.9 73.85 77.14C72.45 78.36 70.57 78.98 68.21 78.98C66 78.98 63.87 78.27 61.8 76.87L62.77 74.92C64.55 75.82 66.16 76.26 67.61 76.26C68.96 76.26 70.03 75.96 70.8 75.36C71.57 74.76 72.02 73.92 72.02 72.85C72.02 71.51 71.09 70.36 69.38 69.4C67.8 68.53 64.64 66.71 64.64 66.71C62.92 65.46 62.07 64.11 62.07 61.9C62.07 60.06 62.71 58.58 63.99 57.46C65.27 56.33 66.92 55.77 68.95 55.77C71.04 55.77 72.94 56.33 74.65 57.44L73.79 59.38C72.32 58.76 70.87 58.45 69.45 58.45C68.29 58.45 67.4 58.73 66.78 59.29C66.15 59.84 65.77 60.56 65.77 61.43C65.77 62.77 66.72 63.93 68.48 64.91C70.08 65.78 73.32 67.63 73.32 67.63C75.08 68.88 75.95 70.22 75.95 72.41Z" />
	<path id="Layer" fill-rule="evenodd" class="shp1" d="M114.18 48.49C114.1 47.95 112.74 47.26 112.3 46.94C111.43 46.31 110.51 45.65 109.58 45.08C109.09 44.78 108.24 44.56 107.7 44.31C106.97 44.01 105.33 43.71 104.92 43.14C104.1 42.07 103.56 40.76 102.99 39.48C102.42 38.17 101.71 36.8 101.13 35.46C100.84 34.81 100.7 34.23 100.37 33.6C98.39 29.75 95.44 26.53 91.88 24.26C90.7 23.52 89.4 22.84 87.95 22.37C87.13 22.13 86.15 22.27 85.28 22.07L84.71 22.07C84.22 21.94 83.81 21.42 83.43 21.14C82.59 20.57 81.74 20.19 80.73 19.78C80.38 19.61 79.37 19.23 79.02 19.53C78.8 19.59 78.69 19.67 78.64 19.89C78.42 20.22 78.61 20.71 78.74 21.01C79.16 21.88 79.73 22.4 80.25 23.14C80.71 23.79 81.28 24.53 81.61 25.24C82.31 26.77 82.64 28.47 83.29 30C83.54 30.57 83.92 31.23 84.27 31.74C84.57 32.16 85.12 32.45 85.28 32.98C85.61 33.52 84.79 35.33 84.6 35.9C83.89 38.14 84.03 41.25 84.85 43.19C85.18 43.96 85.48 44.86 86.35 45.08L86.45 45.03C86.64 43.52 86.7 42.07 87.22 40.9C87.52 40.16 88.11 39.64 88.52 39.04C88.8 39.2 88.8 39.7 88.96 40.02C89.31 40.87 89.69 41.8 90.13 42.65C91.03 44.4 92.04 46.09 93.18 47.62C93.56 48.17 94.11 48.77 94.6 49.26C94.82 49.45 95.06 49.56 95.22 49.8L95.28 49.8L95.28 49.89C94.46 49.58 93.94 48.74 93.29 48.24C92.06 47.32 90.59 45.92 89.75 44.59C89.4 43.82 89.01 43.08 88.63 42.32L88.63 42.27C88.47 42.48 88.52 42.7 88.44 43.03C88.09 44.39 88.36 45.95 87.13 46.44C85.75 47.02 84.71 45.52 84.27 44.83C82.89 42.56 82.5 38.74 83.48 35.65C83.7 34.97 83.73 34.15 84.11 33.6C84.03 33.11 83.65 32.98 83.43 32.67C83.05 32.16 82.72 31.55 82.42 30.98C81.85 29.86 81.44 28.52 81 27.32C80.81 26.83 80.76 26.34 80.57 25.87C80.24 25.16 79.64 24.45 79.18 23.82C78.55 22.92 76.73 21.17 77.46 19.4C78.61 16.58 82.61 18.71 84.16 19.7C84.54 19.94 84.98 20.46 85.42 20.65L87.46 20.76C88.74 21.06 89.94 21.31 90.95 21.88C95.63 24.64 98.68 27.46 101.49 32.1C102.09 33.09 102.39 34.15 102.88 35.21C103.56 36.8 104.32 38.47 105.11 39.97C105.46 40.68 105.74 41.47 106.23 42.07C106.42 42.35 106.96 42.43 107.29 42.59C108.19 43.06 109.28 43.41 110.12 43.96C111.7 44.94 113.23 46.12 114.62 47.32C115.14 47.78 115.49 48.44 115.98 48.93L115.98 49.18C115.54 49.31 115.11 49.45 114.67 49.56C113.72 49.8 112.87 49.75 111.95 49.99C111.38 50.16 110.67 50.38 110.07 50.44L110.12 50.49C110.48 51.5 112.38 52.32 113.26 52.92C114.32 53.68 115.3 54.61 116.09 55.68L116.91 56.47C117.1 56.74 117.15 57.1 117.34 57.34L117.34 57.43C116.96 57.29 116.77 56.94 116.47 56.72C115.87 56.31 115.27 55.81 114.67 55.43C113.64 54.78 112.44 54.4 111.38 53.74C110.78 53.36 110.2 52.92 109.63 52.48C109.11 52.1 108.54 51.36 108.22 50.82C108.03 50.52 108 50.16 107.78 49.94C107.84 49.42 108.49 49.42 108.9 49.26C110.31 48.66 112 48.44 114.18 48.49ZM86.39 24.75C86.61 24.97 86.97 25.11 87.13 25.38C87.27 25.57 87.29 25.76 87.46 25.95C87.46 26.61 87.27 27.05 86.88 27.32L86.83 27.37C86.61 26.94 86.42 26.5 86.2 26.06C85.93 25.68 85.55 25.38 85.33 24.94L85.28 24.94L85.28 24.89C85.37 24.87 85.46 24.84 85.55 24.83C85.65 24.81 85.74 24.79 85.83 24.78C85.93 24.77 86.02 24.76 86.11 24.76C86.21 24.75 86.3 24.75 86.39 24.75Z" />
	<path id="Layer" class="shp2" d="M116.77 78.68L117.34 78.68L117.34 75.91L116.49 75.91L115.8 77.8L115.05 75.91L114.24 75.91L114.24 78.68L114.77 78.68L114.77 76.57L114.8 76.57L115.59 78.68L115.99 78.68L116.77 76.57L116.77 78.68ZM112.23 78.68L112.83 78.68L112.83 76.38L113.61 76.38L113.61 75.91L111.41 75.91L111.41 76.38L112.23 76.38L112.23 78.68Z" />
</svg>