<svg xmlns="http://www.w3.org/2000/svg" viewBox="0 0 100 89" width="100" height="89">
	<style>
		tspan { white-space:pre }
		.shp0 { fill: #f4a93f } 
		.shp1 { fill: #f4a83e } 
		.shp2 { fill: #e88634 } 
		.shp3 { fill: #f8ca51 } 
		.shp4 { fill: #f9cb52 } 
		.shp5 { fill: #f4a73e } 
	</style>
	<path id="Layer" class="shp0" d="M44.17 32.06L54.78 50.55L41.39 50.07L44.17 32.06Z" />
	<path id="Layer" class="shp1" d="M49.26 35.6L57.12 50.55L41.05 50.07L49.26 35.6Z" />
	<path id="Layer" class="shp2" d="M47.78 38.16L54.66 50.55L41.22 50.42L47.78 38.16L47.78 38.16Z" />
	<path id="Layer" class="shp3" d="M55 36.9L57.12 50.55L40.88 50.39L55 36.9L55 36.9Z" />
	<path id="Layer" class="shp3" d="M49.26 54.73L57.3 50.39L40.88 50.24L49.26 54.73Z" />
	<path id="Layer" class="shp2" d="M0 44.22C0.36 55.67 22.48 64.68 49.72 64.68L49.72 60.25C27.8 60.14 4.79 53.42 4.42 44.22L0 44.22L0 44.22Z" />
	<path id="Layer" class="shp4" d="M74.32 2.09C64.24 -3.33 45.38 11.34 31.76 34.95L35.59 37.16C46.65 18.21 63.96 1.64 72.11 5.92L74.32 2.09L74.32 2.09Z" />
	<path id="Layer" class="shp2" d="M0 44.22C0.36 32.77 22.48 23.77 49.72 23.77L49.72 28.19C27.8 28.3 4.79 35.02 4.42 44.22L0 44.22L0 44.22Z" />
	<path id="Layer" class="shp5" d="M24.89 1.11C15.15 7.13 18.42 30.81 32.04 54.41L35.87 52.2C25 33.15 19.32 9.85 27.1 4.94L24.89 1.11Z" />
	<path id="Layer" class="shp4" d="M24.89 87.58C15.15 81.55 18.42 57.88 32.04 34.27L35.87 36.49C25 55.54 19.32 78.83 27.1 83.75L24.89 87.58L24.89 87.58Z" />
	<path id="Layer" class="shp5" d="M24.31 1.38C34.4 -4.04 53.25 10.63 66.87 34.24L63.04 36.45C51.99 17.5 34.67 0.93 26.52 5.21L24.31 1.38Z" />
	<path id="Layer" class="shp2" d="M99.45 44.22C99.1 32.77 76.97 23.77 49.73 23.77L49.73 28.19C71.66 28.3 94.66 35.02 95.03 44.22L99.45 44.22Z" />
	<path id="Layer" class="shp4" d="M24.44 87.62C24.5 87.65 24.56 87.69 24.62 87.72C34.64 93.51 53.69 78.8 67.42 55L63.62 52.76C52.47 71.87 34.94 88.58 26.88 83.92C26.86 83.91 26.83 83.9 26.81 83.88C26.79 83.87 26.77 83.86 26.75 83.85C26.73 83.84 26.71 83.82 26.69 83.81C26.67 83.8 26.65 83.79 26.63 83.77L24.44 87.62Z" />
	<path id="Layer" class="shp5" d="M74.61 87.31C64.52 92.72 45.66 78.05 32.04 54.45L31.9 54.2L35.68 51.9C46.72 70.98 64.18 87.76 72.38 83.49L74.61 87.31Z" />
	<path id="Layer" class="shp2" d="M99.45 43.67C99.45 43.76 99.45 43.85 99.45 43.95C99.45 55.53 77.19 64.68 49.73 64.68L49.73 60.25C71.83 60.14 95.03 53.31 95.03 44C95.03 43.97 95.03 43.94 95.03 43.92C95.03 43.89 95.03 43.86 95.03 43.84C95.03 43.81 95.03 43.78 95.03 43.75C95.03 43.73 95.02 43.7 95.02 43.67L99.45 43.67Z" />
	<path id="Layer" class="shp5" d="M74.04 87.58C83.76 81.55 80.49 57.88 66.87 34.27L66.63 33.85L62.75 35.97L62.78 36.02C73.8 55.12 79.64 78.7 71.87 83.72L74.04 87.58L74.04 87.58Z" />
	<path id="Layer" class="shp4" d="M74.3 1.81C84.03 7.84 80.76 31.52 67.14 55.12L63.31 52.91C74.18 33.86 79.87 10.56 72.09 5.64L74.3 1.81L74.3 1.81Z" />
</svg>