<svg xmlns="http://www.w3.org/2000/svg" viewBox="0 0 100 90" width="100" height="90">
	<style>
		tspan { white-space:pre }
		.shp0 { fill: #ffffff } 
		.shp1 { fill: #53c1de } 
	</style>
	<path id="Layer" class="shp0" d="M0.29 44.9C0.29 52.42 7.62 59.44 19.18 63.4C16.87 75.03 18.77 84.41 25.09 88.07C31.59 91.82 41.28 89.22 50.47 81.17C59.44 88.9 68.49 91.94 74.81 88.27C81.31 84.51 83.29 74.49 80.91 62.49C92.95 58.5 99.68 52.52 99.68 44.9C99.68 37.56 92.34 31.2 80.94 27.27C83.49 14.78 81.33 5.63 74.74 1.82C68.39 -1.85 59.23 1.35 50.13 9.28C40.67 0.86 31.6 -1.71 25.02 2.11C18.67 5.79 16.86 15.34 19.18 27.19C8.01 31.09 0.29 37.59 0.29 44.9Z" />
	<path id="Layer" class="shp1" d="M78.53 31.18C77.61 30.86 76.66 30.56 75.68 30.28C75.84 29.62 75.99 28.98 76.12 28.34C78.27 17.88 76.87 9.45 72.07 6.68C67.46 4.02 59.93 6.79 52.33 13.42C51.59 14.06 50.86 14.74 50.13 15.44C49.64 14.98 49.15 14.52 48.66 14.09C40.69 7 32.7 4.01 27.91 6.8C23.31 9.46 21.95 17.38 23.88 27.3C24.07 28.25 24.29 29.23 24.53 30.23C23.4 30.55 22.31 30.89 21.27 31.25C11.92 34.52 5.95 39.63 5.95 44.94C5.95 50.42 12.36 55.91 22.09 59.25C22.86 59.51 23.66 59.76 24.48 59.99C24.21 61.07 23.98 62.12 23.79 63.15C21.94 72.89 23.38 80.62 27.97 83.27C32.71 86.01 40.66 83.2 48.41 76.42C49.02 75.88 49.63 75.31 50.25 74.72C51.05 75.49 51.84 76.21 52.64 76.9C60.14 83.36 67.55 85.97 72.13 83.32C76.86 80.57 78.4 72.26 76.4 62.16C76.25 61.38 76.07 60.6 75.87 59.79C76.43 59.63 76.98 59.46 77.52 59.28C87.64 55.92 94.22 50.49 94.22 44.94C94.22 39.61 88.06 34.46 78.53 31.18L78.53 31.18L78.53 31.18Z" />
	<path id="Layer" class="shp0" d="M76.33 55.69C75.85 55.85 75.35 56.01 74.85 56.16C73.73 52.62 72.22 48.85 70.38 44.96C72.14 41.16 73.59 37.44 74.67 33.92C75.58 34.18 76.45 34.46 77.3 34.75C85.47 37.56 90.45 41.73 90.45 44.94C90.45 48.36 85.07 52.79 76.33 55.69L76.33 55.69L76.33 55.69ZM72.71 62.89C73.59 67.36 73.71 71.4 73.13 74.56C72.6 77.4 71.55 79.29 70.24 80.05C67.46 81.66 61.51 79.56 55.09 74.03C54.36 73.4 53.62 72.72 52.88 72.01C55.36 69.28 57.85 66.11 60.27 62.6C64.54 62.22 68.57 61.6 72.23 60.75C72.41 61.48 72.57 62.19 72.71 62.89L72.71 62.89L72.71 62.89ZM36.05 79.77C33.33 80.73 31.16 80.76 29.85 80C27.07 78.39 25.91 72.18 27.49 63.85C27.67 62.9 27.89 61.92 28.14 60.92C31.75 61.72 35.75 62.3 40.03 62.64C42.47 66.09 45.03 69.25 47.61 72.02C47.04 72.57 46.48 73.08 45.93 73.57C42.5 76.57 39.07 78.7 36.05 79.77L36.05 79.77L36.05 79.77ZM23.31 55.67C19.01 54.2 15.46 52.28 13.02 50.19C10.83 48.32 9.72 46.45 9.72 44.94C9.72 41.72 14.52 37.61 22.51 34.82C23.48 34.48 24.49 34.16 25.55 33.86C26.65 37.46 28.1 41.23 29.85 45.03C28.08 48.89 26.61 52.71 25.49 56.36C24.74 56.14 24.01 55.91 23.31 55.67L23.31 55.67L23.31 55.67ZM27.58 26.57C25.92 18.08 27.02 11.67 29.8 10.07C32.75 8.35 39.28 10.79 46.16 16.92C46.6 17.31 47.04 17.72 47.49 18.14C44.92 20.9 42.39 24.04 39.97 27.46C35.82 27.85 31.84 28.47 28.19 29.29C27.96 28.37 27.76 27.46 27.58 26.57L27.58 26.57L27.58 26.57ZM65.65 35.99C64.78 34.48 63.88 33 62.97 31.57C65.79 31.92 68.48 32.4 71.02 32.98C70.26 35.42 69.31 37.97 68.19 40.59C67.39 39.07 66.55 37.53 65.65 35.99L65.65 35.99L65.65 35.99ZM50.13 20.84C51.87 22.73 53.61 24.83 55.32 27.12C53.6 27.04 51.85 27 50.09 27C48.34 27 46.61 27.04 44.89 27.12C46.61 24.85 48.36 22.75 50.13 20.84L50.13 20.84L50.13 20.84ZM34.5 36.01C33.63 37.53 32.8 39.06 32.01 40.59C30.91 37.98 29.97 35.41 29.21 32.94C31.72 32.37 34.41 31.91 37.21 31.56C36.28 33.01 35.38 34.49 34.5 36.01L34.5 36.01L34.5 36.01ZM37.29 58.59C34.4 58.26 31.67 57.83 29.15 57.28C29.93 54.76 30.89 52.14 32.02 49.47C32.81 51 33.64 52.53 34.52 54.05L34.52 54.05C35.41 55.59 36.34 57.11 37.29 58.59L37.29 58.59L37.29 58.59ZM50.23 69.3C48.45 67.37 46.66 65.24 44.92 62.94C46.61 63 48.34 63.04 50.09 63.04C51.89 63.04 53.66 63 55.41 62.92C53.7 65.26 51.96 67.4 50.23 69.3L50.23 69.3L50.23 69.3ZM68.23 49.33C69.41 52.03 70.4 54.63 71.19 57.11C68.63 57.7 65.87 58.17 62.96 58.52C63.88 57.06 64.78 55.56 65.67 54.02C66.57 52.46 67.42 50.89 68.23 49.33L68.23 49.33L68.23 49.33ZM62.4 52.13C61.02 54.53 59.61 56.82 58.17 58.98C55.55 59.16 52.84 59.26 50.09 59.26C47.34 59.26 44.67 59.17 42.1 59.01C40.6 56.82 39.15 54.53 37.78 52.15L37.78 52.15C36.41 49.79 35.16 47.4 34.02 45.03C35.16 42.65 36.41 40.26 37.77 37.9L37.77 37.9C39.13 35.53 40.57 33.25 42.05 31.08C44.67 30.88 47.37 30.77 50.09 30.77L50.09 30.77C52.82 30.77 55.51 30.88 58.14 31.08C59.6 33.24 61.02 35.51 62.39 37.88C63.78 40.28 65.05 42.65 66.2 44.98C65.05 47.34 63.78 49.74 62.4 52.13L62.4 52.13L62.4 52.13ZM70.18 9.95C73.14 11.66 74.29 18.55 72.43 27.58C72.31 28.15 72.18 28.74 72.03 29.33C68.37 28.49 64.39 27.86 60.23 27.47C57.81 24.01 55.29 20.86 52.77 18.14C53.45 17.48 54.13 16.86 54.8 16.27C61.32 10.59 67.41 8.35 70.18 9.95L70.18 9.95L70.18 9.95Z" />
	<path id="Layer" class="shp1" d="M50.09 37.04C54.44 37.04 57.97 40.58 57.97 44.94C57.97 49.3 54.44 52.83 50.09 52.83C45.73 52.83 42.2 49.3 42.2 44.94C42.2 40.58 45.73 37.04 50.09 37.04Z" />
</svg>