<svg xmlns="http://www.w3.org/2000/svg" viewBox="0 0 80 60" width="80" height="60">
	<style>
		tspan { white-space:pre }
		.shp0 { fill: #cd6799 } 
	</style>
	<g id="Layer">
		<path id="Layer" fill-rule="evenodd" class="shp0" d="M68.84 34.54C76.05 34.49 80.13 39.17 79.91 43.46C79.78 46.81 76.7 48.18 76.14 48.28C75.73 48.34 75.5 48.35 75.44 48.03C75.39 47.81 75.55 47.71 76.04 47.4C76.52 47.1 77.98 46.1 78.24 44.29C78.5 42.46 77.13 38.14 70.19 37.32C66.96 36.94 64.42 37.39 62.46 38.21C62.82 39.15 63.08 40.13 63.13 41.12C63.22 43.3 61.71 44.9 60.15 46.05C59.23 46.72 58.27 47.17 57.46 47.43C56.82 47.71 55.94 48 55.33 47.87C53.98 47.59 53.26 46.4 54.18 43.74C54.69 42.32 56.12 40.13 58.43 38.25C57.91 37.18 57.31 36.06 57.02 35.05C56.42 33.03 56.25 31.82 56.25 31.82C56.25 31.82 54.34 35.78 51.88 39.38C51.73 39.58 51.6 39.78 51.46 39.98C51.94 41.1 52.33 42.3 52.37 43.5C52.46 45.67 51.51 47.31 49.95 48.46C49.1 49.1 48.21 49.51 47.43 49.79C46.94 50.01 45.93 50.36 44.5 50.46C43.73 50.5 42.98 50.46 42.55 50.14C41.97 49.7 41.9 49.17 42.2 48.42C42.46 47.79 44.36 45.62 45.94 43.73C46.4 43.21 46.81 42.66 47.18 42.17C47.17 42.16 47.17 42.16 47.17 42.16C47.17 42.16 47.46 41.79 47.93 41.14C47.34 39.88 46.62 38.58 46.26 37.41C45.67 35.39 45.5 34.18 45.5 34.18C45.5 34.18 43.55 39.14 41.54 43.1C39.98 46.18 38.94 48.03 38.47 48.85L38.47 48.87C38.47 48.87 38.4 48.99 38.28 49.18C38.22 49.28 38.19 49.33 38.19 49.33L38.19 49.31C37.67 50.08 36.49 51.6 35.32 51.6C32.12 51.6 33.3 45.1 33.3 45.1C33.3 45.1 32.35 47.5 31.3 49.58C30.44 51.26 29.67 52.7 27.95 52.7C27.46 52.7 26.68 52.68 26.02 52.06C24.55 50.66 23.43 47.11 23.65 44.37C23.82 42.04 24.19 40.42 24.69 39.06C23.81 39.54 22.79 40.1 21.75 40.71C21.23 41.02 20.7 41.34 20.17 41.65C20.2 41.67 20.21 41.7 20.22 41.74C21.55 44.29 21.9 49.85 19.03 54.14C16.16 58.42 10.82 61.02 5.61 59.57C3.94 59.1 1.4 55.63 3.58 50.8C5.51 46.53 13.23 42.49 15.26 41.49C15.42 41.4 15.61 41.3 15.81 41.18C11.76 37.64 1.63 32.86 0.22 25.51C-0.18 23.45 0.78 18.5 6.86 12.82C11.98 8.04 19.09 4.37 25.65 2.04C36.68 -1.88 48.34 0.44 50.1 7.46C51.86 14.38 45.86 22.65 38.18 25.62C31.31 28.27 25.65 27.85 23.31 27.09C20.68 26.23 19.12 24.48 18.74 23.49C18.59 23.11 18.33 22.46 18.74 22.24C18.98 22.09 19.09 22.14 19.76 22.86C20.4 23.56 22.94 25.43 27.78 24.89C40.45 23.46 48.1 13.61 45.68 8.3C43.99 4.59 34.23 2.91 21.96 8.96C7.06 16.39 6.25 22.51 6.12 24.85C5.77 31.24 14.02 34.61 18.48 39.38C18.54 39.43 18.59 39.5 18.66 39.56C19.48 39.11 20.37 38.63 21.23 38.15C23.49 36.91 25.6 35.76 26.59 35.22C28.17 32.94 31.34 30.42 33.65 30.42C37.34 30.42 36.06 35.7 36.06 35.7C36.06 35.7 36.14 35.46 36.24 35.46C36.34 35.46 36.75 34.75 37.89 35.18C39.06 35.6 38.79 36.42 38.79 36.5C38.81 36.66 37.42 41.35 36.84 44.37C36.56 45.8 36.72 46.85 36.81 46.85C36.93 46.85 37.16 46.49 37.38 46.09C37.38 46.08 37.38 46.08 37.38 46.08C37.38 46.08 37.54 45.78 37.82 45.25C37.86 45.18 37.87 45.13 37.87 45.13C38.19 44.5 38.65 43.58 39.17 42.43C40.19 40.19 44.08 31.5 44.42 30.54C44.75 29.58 44.93 28.59 45.09 28.17C45.25 27.74 46.63 27.42 48.23 27.44C49.84 27.46 50 28.14 50.01 28.29C50.02 28.43 49.24 30.34 49.06 31.68C48.89 33.02 49.06 33.7 49.21 34.82C49.31 35.57 49.78 36.5 50.32 37.57C51.99 34.84 54.92 29.64 55.2 28.18C55.4 27.19 55.71 26.23 55.87 25.81C56.03 25.38 57.42 25.06 59.02 25.08C60.62 25.1 60.78 25.78 60.79 25.92C60.81 26.07 60.02 27.98 59.85 29.32C59.67 30.66 59.85 31.34 59.99 32.46C60.12 33.43 60.86 34.74 61.61 36.21C63.63 35.22 66.06 34.55 68.84 34.54ZM15.33 52.58C17.75 49.94 18.74 46.6 17.7 42.82C17.59 42.89 17.47 42.96 17.35 43.03C17.35 43.03 17.3 43.06 17.19 43.12C16.6 43.48 16.1 43.78 15.77 43.98C14.3 44.9 12.08 46.4 10.36 48.02C7.54 50.66 6.95 54.37 8.44 55.22C9.82 56.03 13.02 55.08 15.33 52.58ZM32.09 41.18C32.58 39.96 34.54 34.54 34.11 33.79C33.78 33.22 32.39 33.69 31.14 35.09C30.37 35.96 29.04 38.21 28.42 40.09C27.18 43.83 27.71 47.62 28.59 47.86C29.61 48.13 31.29 43.14 32.09 41.18ZM45.92 47.79C46.88 47.18 49.03 45.68 49.03 43.46L49.03 43.26C48.54 43.92 48.07 44.5 47.68 45C46.99 45.84 45.26 47.71 45.26 47.71C45.26 47.71 45.02 47.94 45.11 48C45.26 48.09 45.58 47.97 45.92 47.79ZM56.58 45.36C57.79 44.93 59.8 43.88 59.82 41.06C59.83 40.64 59.73 40.19 59.58 39.72C58.29 40.87 57.53 42.07 57.21 42.78C56.38 44.61 56.34 45.18 56.58 45.36Z" />
	</g>
</svg>