<svg xmlns="http://www.w3.org/2000/svg" viewBox="0 0 50 50" width="50" height="50">
	<style>
		tspan { white-space:pre }
		.shp0 { fill: #464342 } 
	</style>
	<g id="Layer">
		<path id="Layer" fill-rule="evenodd" class="shp0" d="M24.91 0C38.63 0 49.8 11.21 49.81 25C49.81 38.78 38.63 50 24.91 50C11.17 50 0 38.78 0 25C0 11.21 11.17 0 24.91 0ZM24.91 48.85C38.01 48.85 48.66 38.16 48.66 25C48.66 11.85 38.01 1.15 24.91 1.15C11.8 1.15 1.14 11.85 1.14 25C1.14 38.16 11.8 48.85 24.91 48.85ZM25.28 26.88L31.84 44.94C31.89 45.05 31.94 45.14 32 45.23C29.77 46.02 27.39 46.45 24.91 46.45C22.8 46.45 20.78 46.14 18.87 45.58L25.28 26.88ZM43.65 14.71C45.31 17.77 46.27 21.27 46.27 25C46.27 32.91 41.99 39.82 35.65 43.54L42.17 24.6C43.39 21.54 43.8 19.09 43.8 16.91C43.8 16.13 43.74 15.39 43.65 14.71ZM3.54 25C3.54 21.89 4.21 18.94 5.39 16.27L15.58 44.3C8.46 40.83 3.54 33.49 3.54 25ZM39.33 23.92C39.33 25.75 38.62 27.89 37.7 30.85L35.57 38L27.85 14.95C29.14 14.88 30.3 14.74 30.3 14.74C31.45 14.61 31.31 12.9 30.16 12.97C30.16 12.97 26.7 13.24 24.46 13.24C22.36 13.24 18.84 12.97 18.84 12.97C17.68 12.9 17.55 14.67 18.7 14.74C18.7 14.74 19.79 14.88 20.94 14.95L24.27 24.1L19.59 38.17L11.81 14.95C13.1 14.88 14.26 14.74 14.26 14.74C15.41 14.61 15.28 12.9 14.12 12.97C14.12 12.97 10.66 13.24 8.43 13.24C8.03 13.24 7.55 13.23 7.05 13.22C10.88 7.4 17.44 3.56 24.91 3.56C30.46 3.56 35.53 5.69 39.33 9.19C39.23 9.18 39.15 9.16 39.05 9.16C36.95 9.16 35.47 11 35.47 12.97C35.47 14.74 36.48 16.23 37.56 18C38.38 19.43 39.33 21.27 39.33 23.92Z" />
	</g>
</svg>