<svg xmlns="http://www.w3.org/2000/svg" width="100" height="60"><style>.shp1{fill:#f90}</style><path id="Layer" fill-rule="evenodd" d="M28.14 21.77c0 1.23.13 2.23.36 2.96.27.74.6 1.54 1.07 2.4.16.27.23.54.23.77 0 .33-.2.67-.63 1l-2.09 1.4c-.3.2-.6.3-.87.3-.33 0-.66-.17-.99-.47-.47-.5-.87-1.03-1.2-1.56-.33-.57-.66-1.2-1.03-1.97-2.59 3.07-5.85 4.6-9.77 4.6-2.79 0-5.01-.8-6.64-2.4-1.63-1.6-2.46-3.73-2.46-6.4 0-2.83 1-5.13 3.02-6.87 2.03-1.73 4.72-2.6 8.14-2.6 1.13 0 2.29.1 3.52.27s2.5.43 3.82.73V11.5c0-2.53-.53-4.3-1.56-5.33-1.06-1.04-2.85-1.54-5.41-1.54-1.16 0-2.36.14-3.59.44s-2.43.66-3.59 1.13c-.53.23-.93.37-1.16.43-.23.07-.4.1-.53.1-.47 0-.7-.33-.7-1.03V4.07c0-.54.07-.94.23-1.17.17-.23.47-.47.93-.7C8.41 1.6 9.8 1.1 11.43.7c1.63-.43 3.35-.63 5.18-.63 3.95 0 6.85.9 8.71 2.7 1.82 1.8 2.75 4.53 2.75 8.2v10.8h.07zm-10.07 4.46c1.2-.4 2.26-1.13 3.16-2.13.53-.63.93-1.33 1.13-2.13.2-.8.33-1.77.33-2.9v-1.4c-.96-.24-1.99-.44-3.06-.57-1.06-.13-2.09-.2-3.12-.2-2.22 0-3.85.43-4.95 1.33-1.09.9-1.63 2.17-1.63 3.84 0 1.56.4 2.73 1.23 3.53.8.83 1.96 1.23 3.49 1.23 1.1 0 2.23-.2 3.42-.6zm22 3.87c-.27-.2-.5-.67-.7-1.3L31.56 3.03c-.2-.66-.3-1.1-.3-1.33 0-.53.27-.83.8-.83h3.26c.63 0 1.06.1 1.29.33.27.2.47.67.67 1.3l5.58 22.07L48.04 2.5c.17-.67.37-1.1.63-1.3.27-.2.73-.33 1.33-.33h2.66c.63 0 1.06.1 1.33.33.26.2.5.67.63 1.3l5.25 22.33L65.61 2.5c.2-.67.44-1.1.67-1.3.26-.2.7-.33 1.29-.33h3.09c.54 0 .84.26.84.83 0 .17-.04.33-.07.53-.03.2-.1.47-.23.84l-8.01 25.76c-.2.67-.43 1.1-.7 1.3-.26.2-.7.34-1.26.34h-2.86c-.63 0-1.06-.1-1.33-.34-.26-.23-.5-.66-.63-1.33L51.26 7.3l-5.11 21.47c-.17.66-.37 1.1-.64 1.33-.26.23-.73.33-1.32.33h-2.86c-.6 0-1-.1-1.26-.33zm38.83.63c-1.66-.4-2.95-.83-3.82-1.33-.53-.3-.89-.63-1.03-.93-.13-.3-.2-.64-.2-.94v-1.7c0-.7.27-1.03.77-1.03.2 0 .4.03.6.1.2.07.49.2.83.33 1.13.5 2.36.9 3.65 1.17 1.33.27 2.63.4 3.95.4 2.1 0 3.73-.37 4.85-1.1 1.13-.73 1.73-1.8 1.73-3.17 0-.93-.3-1.7-.89-2.33-.6-.63-1.73-1.2-3.36-1.73l-4.82-1.5c-2.42-.77-4.22-1.9-5.31-3.4-1.1-1.47-1.66-3.1-1.66-4.84 0-1.4.3-2.63.89-3.7.6-1.06 1.4-2 2.4-2.73.99-.77 2.12-1.33 3.45-1.73C82.26.17 83.65 0 85.12 0c.73 0 1.49.03 2.22.13.77.1 1.46.24 2.16.37.67.17 1.3.33 1.9.53.59.2 1.06.4 1.39.6.47.27.8.54 1 .84.2.26.3.63.3 1.1v1.56c0 .7-.27 1.07-.77 1.07-.26 0-.7-.13-1.26-.4-1.89-.87-4.02-1.3-6.38-1.3-1.89 0-3.39.3-4.42.93-1.03.64-1.56 1.6-1.56 2.97 0 .93.33 1.73 1 2.37.66.63 1.89 1.26 3.65 1.83l4.72 1.5c2.39.77 4.12 1.83 5.15 3.2 1.03 1.37 1.53 2.93 1.53 4.67 0 1.43-.3 2.73-.87 3.86a8.8 8.8 0 01-2.42 2.94c-1.03.83-2.26 1.43-3.69 1.86-1.49.47-3.06.7-4.75.7-1.73 0-3.46-.2-5.12-.6z" fill="#252f3e"/><path id="Layer" class="shp1" d="M90.3 47.53c-10.93 8.1-26.81 12.4-40.47 12.4-19.13 0-36.37-7.1-49.4-18.9-1.03-.93-.1-2.2 1.13-1.46C15.65 47.77 33.02 52.73 51 52.73c12.12 0 25.45-2.53 37.7-7.73 1.83-.83 3.39 1.2 1.6 2.53z"/><path id="Layer" class="shp1" d="M94.85 42.33c-1.39-1.8-9.24-.86-12.79-.43-1.06.13-1.23-.8-.27-1.5 6.25-4.4 16.52-3.13 17.71-1.67 1.2 1.5-.33 11.8-6.18 16.74-.89.76-1.76.36-1.36-.64 1.33-3.3 4.29-10.73 2.89-12.5z"/></svg>