<svg xmlns="http://www.w3.org/2000/svg" width="120" height="33"><style>.shp0{fill:#b52e31}</style><g id="Layer"><g id="Layer"><g id="Layer"><path id="Layer" fill-rule="evenodd" class="shp0" d="M35.3 24.41V9.45h1.9l9.02 12.04V9.45h1.8v14.96h-1.89L37.1 12.25v12.16h-1.8zm27.42-.6c-1.2.45-2.49.69-3.84.69-5.35 0-8.02-2.59-8.02-7.79 0-4.91 2.58-7.38 7.73-7.38 1.48 0 2.86.21 4.13.62v1.66c-1.27-.5-2.58-.74-3.92-.74-4.03 0-6.04 1.95-6.04 5.8 0 4.15 1.99 6.22 5.95 6.22.63 0 1.34-.1 2.11-.26v-5.01h1.9v6.19zm3.05-5.17V9.45h1.89v9.19c0 2.87 1.41 4.32 4.25 4.32 2.81 0 4.24-1.45 4.24-4.32V9.45h1.9v9.19c0 3.91-2.04 5.88-6.14 5.88-4.11 0-6.14-1.97-6.14-5.88zm17.57-9.19v13.39h7.74v1.57h-9.63V9.45h1.89zm10.48 14.96h-1.99l7.33-16.93 7.34 16.93h-2.11l-1.9-4.7h-4.87l.51-1.57h3.73l-2.77-6.77-5.27 13.04zm14.72 0V9.45h6.3c2.82 0 4.22 1.19 4.22 3.58 0 1.95-1.38 3.4-4.12 4.32l5.06 7.06h-2.51l-4.69-6.72v-1.26c2.82-.45 4.25-1.54 4.25-3.3 0-1.38-.78-2.07-2.35-2.07h-4.22v13.35h-1.94z"/></g><g id="Layer"><path id="Layer" fill-rule="evenodd" d="M0 5.46L15.12 0l15.51 5.37-2.5 20.25-13.01 7.29-12.8-7.2L0 5.46z" fill="#e23237"/><path id="Layer" fill-rule="evenodd" class="shp0" d="M30.63 5.37L15.12 0v32.91l13.01-7.29 2.5-20.25z"/><path id="Layer" fill-rule="evenodd" d="M15.14 3.85l9.82 21.27-3.35-.07-2.06-4.85h-8.42L9.23 25l-3.51.07 9.42-21.22zm.02 6.81l-2.78 6.74h5.97l-3.19-6.74z" fill="#fff"/></g></g></g></svg>