<svg xmlns="http://www.w3.org/2000/svg" width="50" height="50"><style/><g id="Layer"><path id="Layer" d="M0 43.55C0 47.11 2.89 50 6.45 50h37.1c3.56 0 6.45-2.89 6.45-6.45V6.45C50 2.89 47.11 0 43.55 0H6.45C2.89 0 0 2.89 0 6.45v37.1z" fill="#563d7c"/><path id="Layer" fill-rule="evenodd" d="M14.08 9.86h14.25c1.44 0 2.75.13 3.94.39 1.18.25 2.2.66 3.05 1.24.85.58 1.51 1.36 1.97 2.32.47.96.7 2.14.7 3.56 0 1.52-.34 2.8-1.04 3.82-.69 1.01-1.72 1.84-3.07 2.5 1.87.53 3.25 1.47 4.17 2.82.92 1.34 1.38 2.96 1.38 4.85 0 1.53-.3 2.85-.89 3.97a7.78 7.78 0 01-2.39 2.73c-1.01.71-2.15 1.23-3.44 1.57-1.28.34-2.6.51-3.96.51H14.08V9.86zm6.65 12.26h6.74c1.19 0 2.17-.29 2.93-.85.77-.56 1.15-1.48 1.15-2.76 0-.7-.13-1.28-.38-1.74-.26-.45-.6-.8-1.02-1.06-.43-.25-.92-.42-1.46-.52-.56-.1-1.13-.16-1.72-.16h-6.24v7.09zm0 12.85h7.13c.65 0 1.27-.07 1.86-.2a4.58 4.58 0 001.57-.63c.46-.3.82-.7 1.08-1.21.27-.51.4-1.16.4-1.95 0-1.55-.43-2.67-1.31-3.33-.87-.66-2.03-1-3.47-1h-7.26v8.32z" fill="#fff"/></g></svg>