<svg xmlns="http://www.w3.org/2000/svg" width="90" height="80"><style>.shp0{fill:#543729}.shp3{fill:#ffcc2f}</style><g id="Layer"><path id="Layer" class="shp0" d="M89.48 39.15c-4.61-4.48-27.69-7.28-34.97-8.1.35-.83.65-1.7.9-2.6.99-.44 2.06-.85 3.17-1.2.13.41.77 1.95 1.13 2.69 14.65.41 15.4-11 16-14.13.57-3.06.55-6.02 5.57-11.42-7.48-2.2-18.25 3.42-21.85 11.79-1.35-.52-2.7-.89-4.05-1.13C54.42 11.13 49.41.2 36.26.2 19.62.2 1.48 14.08 1.48 37.59c0 19.76 13.34 37.07 20.87 37.07 3.3 0 6.12-2.49 6.79-4.72.56 1.53 2.27 6.3 2.84 7.51.82 1.79 4.66 3.34 6.34 1.48 2.16 1.22 6.12 1.94 8.28-1.29 4.16.89 7.84-1.62 7.92-4.61 2.04-.11 3.04-3.01 2.59-5.32-.32-1.7-3.83-7.8-5.2-9.9 2.71 2.23 9.58 2.86 10.4 0 4.38 3.47 11.18 1.64 11.72-1.17 5.31 1.4 11.41-1.68 10.41-5.39 8.53-.59 7.43-9.77 5.04-12.1z"/><path id="Layer" fill-rule="evenodd" d="M72.79 9.38c-3.2 1.31-6.37 5.22-8.25 9.4-.96-.62-1.92-1.16-2.9-1.64 2.61-5.64 8.68-10.36 15.38-10.72-4.48 4.11-2.9 12.65-6.58 17.18-1.05-1.07-3.47-3.14-4.71-4.02 1.84-3.68 4.14-7.71 7.06-10.2zm-9.95 16.2c.15-.27.59-1.23.77-1.6 1.6.31 3.7.83 4.93 1.41-1.45.95-3.9 1.98-7.31 2.06-.49-1.09-.99-2.89-.93-3.95.84-.02 2.43.3 2.69.36-.1.49-.15 1.59-.15 1.72z" fill="#00acee"/><path id="Layer" fill-rule="evenodd" d="M50.18 54.76c-.43-.93-.89-2.08-1.43-3.57 2.13 3.14 8.81 1.52 8.46-1.29 3.27 2.49 10-.41 8.47-3.9 3.28 1.55 7.01-1.56 6.17-2.92 5.58 1.09 10.94 2.17 12.61 2.61-1.11 1.85-3.65 3.15-7.48 2.24 2.07 2.85-1.95 6.27-7.55 4.39 1.24 2.8-3.75 5.32-9.41 2.4.07 2.8-7.03 3.13-9.84.03v.01zm11.08-14.17c4.96.03 14.79-.94 18.67-1.36 3.6.97 4.74 1.6 5.16 3.78-6.64-.94-17.35-1.92-23.83-2.42z" fill="#2baf2b"/><path id="Layer" class="shp3" d="M57.21 49.9c3.27 2.49 10-.41 8.47-3.9 3.28 1.55 7.01-1.56 6.17-2.92-6.6-1.28-13.52-2.58-15.1-2.8.96.05 2.53.16 4.51.31 4.96.03 14.79-.94 18.67-1.36-6.28-1.61-19.08-3.96-27.93-4.54-.4.61-1.16 1.64-2.47 2.73C45.66 45.7 38.64 51.2 30.89 51.2c-2.26 0-4.79-.38-7.63-1.3-1.76 1.91-9.3 3.36-15.41.33 4.85 11.49 16.1 19.15 28.55 19.15 10.49 0 15.14-10.83 14.12-13.69-.25-.7-1.23-3.01-1.78-4.5 2.14 3.14 8.81 1.52 8.47-1.29z"/><path id="Layer" d="M50.85 28.1c.93-.51 4.13-2.47 7.18-3.21-.05-.34-.09-.68-.11-1.03-2 .49-5.78 2.12-7.94-.13 4.57 1.39 6.84-1.24 10.19-1.24 2 0 4.85.56 7.09 1.46-1.8-1.7-7.73-6.79-15.06-6.8-1.64 2-3.4 6.35-1.35 10.95z" fill="#cecece"/><path id="Layer" d="M23.26 49.9c2.84.92 5.37 1.3 7.63 1.3 7.75 0 14.77-5.5 18.64-13.78-2.87 2.42-7.83 4.48-15.6 4.48 6.91-1.59 12.87-5.07 15.9-10.17-2.13-3.43-4.44-11.01 1.41-17.01-.9-2.92-5.28-10.64-14.98-10.64-16.92 0-30.94 14.32-30.94 33.51 0 4.55.91 8.8 2.53 12.64 6.11 3.03 13.65 1.58 15.41-.33z" fill="#ef5734"/><path id="Layer" class="shp3" d="M28.34 20.68c0 4.37 3.5 7.9 7.82 7.9 4.31 0 7.81-3.53 7.81-7.9 0-4.37-3.5-7.91-7.81-7.91-4.32 0-7.82 3.54-7.82 7.91z"/><path id="Layer" class="shp0" d="M31.48 20.68c0 2.61 2.1 4.73 4.68 4.73 2.58 0 4.68-2.12 4.68-4.73 0-2.62-2.1-4.73-4.68-4.73-2.58 0-4.68 2.11-4.68 4.73z"/><path id="Layer" d="M36.16 20.29c-1.51 0-2.73-.76-2.73-1.71s1.22-1.72 2.73-1.72c1.5 0 2.73.77 2.73 1.72s-1.23 1.71-2.73 1.71z" fill="#fff"/></g></svg>