<svg xmlns="http://www.w3.org/2000/svg" width="140" height="75"><style/><path id="Layer" fill-rule="evenodd" d="M83.17 34.7v1.61c-1.14-1.87-3.01-1.99-4.01-1.99-3.63 0-6.13 2.87-6.13 6.62 0 3.62 2.5 6.62 6.39 6.62.99 0 2.61-.11 3.87-1.99v1.62h3.49V34.7h-3.61zm-6.39 6.24c0-.47.08-.92.25-1.35.17-.44.42-.83.75-1.16.33-.31.72-.59 1.16-.75.42-.16.88-.26 1.35-.24 2.12 0 3.49 1.5 3.49 3.5.02.46-.07.93-.23 1.35-.17.43-.44.82-.75 1.15-.33.33-.73.59-1.16.75-.44.18-.89.26-1.35.26-2.13 0-3.51-1.5-3.51-3.51zm19.26-3.24v-3h-2.38v-4.27h-3.5v4.27H88.8v3h1.36v9.49h3.5V37.7h2.38zm10.01-2.01c-1.64-1.25-3.14-1.39-4.01-1.39-1.01 0-2.25.14-3.26.89-.61.61-1.24 1.62-1.24 2.86 0 1.01.37 1.76 1.01 2.39.75.75 1.73 1.12 2.62 1.5l.75.26c.49.11 1.13.49 1.13 1.24 0 .87-.75 1.38-1.76 1.38s-1.99-.75-2.74-1.5l-1.88 2.12c.87.88 2.25 2.12 4.88 2.12 1.5 0 2.74-.49 3.75-1.37.98-.88 1.36-2 1.36-3.13 0-.86-.24-1.61-.61-2.12-.64-.99-2.14-1.37-3.14-1.74l-.87-.26c-1.01-.38-1.13-.75-1.13-1.13 0-.62.5-1 1.39-1 .37 0 1.11.14 1.99.89l1.76-2.01zm5.86-9.5h-3.5v21h3.38v-1.64c1.38 1.88 3.26 2.01 4.01 2.01 3.75 0 6.23-2.87 6.23-6.62s-2.48-6.64-6.12-6.64c-1 0-2.75.26-4 2.01V26.19zm3.12 11.25c2.13 0 3.51 1.5 3.51 3.5.02.46-.07.93-.24 1.35-.18.43-.44.82-.77 1.15-.33.33-.72.59-1.13.75-.44.18-.9.26-1.37.26-2.12 0-3.5-1.5-3.5-3.51 0-2 1.38-3.5 3.5-3.5zm8.25 16.38h4l10.01-19.12h-4.01l-3.49 7.12-3.88-7.12h-4.13l6 10.61-4.5 8.51zM72.16 36.81h-8.75v3.51h4.62c-.75 2.37-2.5 3.99-5.74 3.99-3.63 0-6.26-3-6.26-6.61 0-3.64 2.51-6.75 6.13-6.75 2 0 4 .98 5.25 2.62l2.87-1.87c-1.87-2.63-4.87-4.13-8.12-4.13-5.5 0-10 4.5-10 10.13 0 5.6 4.25 10.12 10 10.12s10-4.5 10-10.12c.12-.38 0-.64 0-.89z" fill="#000"/><path id="Layer" fill-rule="evenodd" d="M27.92 54.02L7.75 33.83c1.7-7.49 8.41-13.15 16.37-13.15 5.67 0 10.55 2.75 13.61 6.89l-2.29 2c-2.61-3.53-6.74-5.82-11.32-5.82-5.96 0-11.16 3.8-12.99 9.16l17.57 17.6c4.44-1.54 7.81-5.36 8.87-9.95h-7.34V37.5h10.72c0 7.95-5.66 14.69-13.03 16.52zm-4.1.14c-4.13 0-8.42-1.68-11.63-4.88-3.21-3.22-4.89-7.34-4.89-11.63l16.52 16.51z" fill="#fff"/><path id="Layer" fill-rule="evenodd" d="M24.12 16.09c11.77 0 21.41 9.63 21.41 21.41s-9.64 21.41-21.41 21.41c-11.78 0-21.41-9.63-21.41-21.41s9.63-21.41 21.41-21.41zm-.16 38.24L7.3 37.8c0 4.14 1.68 8.41 4.89 11.63 3.21 3.21 7.5 4.73 11.77 4.9zM40.95 37.5H30.23v3.08h7.36c-1.07 4.57-4.43 8.39-8.87 9.93L11.14 32.92c1.98-5.35 7.03-9.17 12.99-9.17 4.59 0 8.71 2.29 11.31 5.82l2.29-2.02c-3.06-4.12-7.94-6.87-13.6-6.87-7.97 0-14.68 5.66-16.38 13.15l20.04 20.05c7.5-1.69 13.16-8.43 13.16-16.38z" fill="#639"/></svg>