<svg xmlns="http://www.w3.org/2000/svg" width="60" height="80"><style>.shp0{fill:#fba919}.shp1{fill:#e78724}.shp2{fill:#fdc168}.shp3{fill:#fff}.shp4{fill:#c9c9c9}.shp5{fill:#463014}</style><g id="Layer"><path id="Layer" class="shp0" d="M4.05 19.39s1.38 5.27 1.58 7.03c.19 1.75-3.54 5.65-3.54 7.61 0 1.95.78 5.46 5.11 7.22 4.33 1.75 4.92 6.24 4.92 8.98 0 2.73-1.58 8-1.58 8s-.98 13.07 4.33 15.41c5.31 2.35 4.13 2.35 5.31 2.35 1.18 0 9.84 3.51 14.95 2.14 5.11-1.36 6.49-2.92 6.49-2.92s5.11.39 6.69-4.1c1.57-4.49 2.55-13.86 1.96-18.15-.59-4.3-1.37-9.96 2.17-11.91 3.54-1.95 7.27-4.29 6.68-6.24-.59-1.95-3.73-4.69-3.73-4.69s-.79-4.88-.2-6.05c.59-1.17 4.13-4.1 2.16-6.24-1.96-2.15-5.5-2.15-5.5-2.15l-4.53.39s-7.67-6.83-17.7-6.44c-10.03.39-16.32 6.44-16.32 6.44s-3.35-1.17-6.3 0c-2.95 1.17-3.54 0-2.95 3.32z"/><path id="Layer" class="shp1" d="M22.03 48.45s-3.9 5.91-6.76 10.1c-.44.65 2.86.69 2.86.69l3.9-10.79zm1.85-12.26s-1.17 2.91-1.82 4.45c-.69 1.68-3.36 2.51-3.36 2.51s1.38-1.44 1.38-5.07c0-1.53 1.99-2.14 1.99-2.14l1.81.25z"/><path id="Layer" class="shp1" d="M22.69 37.84s-2.4 2.84-6.87 1.25c-4.46-1.59-4.92-7.28-4.92-8.87 0-1.59 8.47 1.59 9.62 2.28 1.14.68 3.32 3.41 2.17 5.34zM5.82 7.48s4.13-.8 6.87 1.36c2.75 2.16 3.56 3.87 3.56 3.87l-4.64 3.64s-2.24-1.03-2.92-3.99C8 9.41 8.46 8.05 5.82 7.48z"/><path id="Layer" class="shp1" d="M21.49 29.63c-1.77-2.5-4.7-3.59-7.04-3.77-3.98-.31-5.87 1.09-5.87 1.09s6.52.27 8.4 2.72c3.5 4.56 8.61 4.93 9.43 3.93-.95.05-1.99-.42-3.1-1.46-.69-.65-1.25-1.72-1.82-2.51zm-11.01 8.84S3.24 36 4.62 33.5c1.37-2.5.28-3.86.28-3.86s-4.04 2.99-3.01 6.18c.63 1.95 1.69 3.36 7.52 6.07 2.8 5.16.58 14.44.71 14.48.22.07 3.93-1.82 3.68-10.5-.08-2.66-.3-6.3-3.32-7.4zm9.48-26.55c-3.03 1.53-7.19 3.66-7.19 3.66l1.64.82c-.16.25-.23.4-.23.4l1.68.76s4.1 2.94 6.61 4.84c-.84-2.56-3.3-6.58-3.3-6.58s-.69-1.85.79-3.9zm10.09 62.36c-9.33 0-12.49-4.69-12.49-4.69l1.46 3.52c.55 1.52 6.43 6.26 11.01 6.26"/><path id="Layer" class="shp1" d="M18.58 66.41s.86 5.2 4.3 5.2c2.92 0 3.78-4.39 3.78-5.3l-8.08.1zm-5.72-7.85c.31-.83 1.38-4.2 1.72-7.27.41-3.68.26-9.05.26-9.05s-.92 3.52-1.72 4.09c-.8.57-2.29 4.43-2.29 4.43s-.8 5.75-1.18 7.69c1.06.21 1.94-.41 3.21.11zm-8.3-22.8s1.95-.68 2.52-4.89c.58-4.2-.68-7.84-.68-7.84s.11 5.8-.58 6.93c-.68 1.14-1.26 1.48-2.06 2.96s.34 2.38.8 2.84z"/><path id="Layer" class="shp2" d="M6.89 8.47l-.4-.25c-1.17.04.4.25.4.25z"/><path id="Layer" class="shp0" d="M21.55 10.68s-1.83-.3-2.75-1.67c-.92-1.36-3.51-4.09-7.65-4.12-4.14-.03-8.23 1.09-8.23 1.09l3.57 2.24c.38-.01 1.04 0 2.13.03 4.49.15 5.18 4.55 5.18 4.55l15.8-2.16"/><path id="Layer" class="shp3" d="M23.08 34.99s-2.14 2.12-5.43 1.44c-3.28-.68-5.27-2.12-5.42-4.62-.15-2.5.69-3.49.69-3.49s3.66 1.14 5.42 2.66c1.76 1.51 3.06 3.94 4.74 4.01z"/><path id="Layer" class="shp4" d="M20.49 34.23s-1.86.85-3.93.16c-2.71-.9-2.89-3.7-2.89-3.7s-1.67 4.85 3 5.78c3.74.75 5.96-1.4 5.96-1.4l-2.14-.84z"/><path id="Layer" class="shp5" d="M21.81 9.65c-.2-4.16 3.23-7.47 4.42-7.61.07.71-.07 3.45 1.12 4.3C27.7 4.1 28.87 1.62 33.5 0c-.99 2.61-.14 4.79.27 5.8 3.16-2.84 5.29-2.37 5.29-2.37s-2.2 3.76-1.34 6.22c-6.34-.49-15.88.67-15.91 0zM8.37 15.98c-1.52-1.24-.39-2.4-.51-3.81-.06-.76-.12-1.47-.37-1.86-1.4-2.18-4.68-2.84-4.71-2.85l-1.54-.3 1.02-1.18c.13-.15 4.32-4.12 10.8-2.04 4.54 1.45 7.9 6.37 8.02 6.57l-2.27 1.06c-.03-.04-2.69-4.67-6.58-5.91-3.14-1.01-6.04-.05-7.28.57 1.32.53 3.04 1.48 4.08 3.11.49.77.58 1.74.66 2.68.1 1.24.2 2.41 1.12 3.17l-2.44.79zM4.33 34.16s1.9-2.34 2.47-6.91c.22-1.79-.18-5.34-.81-6.7.12 3.35-.74 6.7-.74 6.7s-.58 6.23-.92 6.91z"/><path id="Layer" class="shp5" d="M14.38 13.61c-.01 0-.62-2.65-2.31-3.98-2.39-1.89-5.3-.89-5.33-.88l-.42-1.29c.14-.05 3.47-1.09 6.54 1.05 3.09 2.15 3.46 4.11 3.49 4.32l-1.97.78zm-4.07 18.87s-1-1.42-.82-2.98c.09-.77.45-1.57 1.09-1.85 1.2-.52 1.73.83 1.73.83s-1.68.41-2 4z"/><path id="Layer" class="shp5" d="M21.29 34.64l.06.12s-3.12 2.33-6.31-.03c-1.71-1.26-1.55-4.39-1.03-5.71 1.37.31 2.52.86 3.49 1.5-1.22-1.08-2.29-1.87-2.29-1.89l-1.39-.39-2.69-.92c-.04.2-1.02 4.78 1.82 7.9 1.26 1.38 7.16 4.48 9.96-.82l-1.62.24z"/><path id="Layer" class="shp5" d="M21 34.98c1.75 2.66 6.18 1.14 6.11-1.66 0 0-2.96 1.62-5.58-1.37C20 30.21 15.11 25.41 8.48 27c4.58 1 10.65 5.16 12.52 7.98z"/><path id="Layer" class="shp5" d="M7.86 42.47c.42.24 1.91 1.77 1.91 4.06 0 1.15-.11 6.92-.69 10.44.86.55 1.46.67 2.32 1.24.43-4.08.74-10 .6-12.38-.17-2.73-1.64-4.55-3-5.33-.43-.24-.87-.48-1.32-.72-2.33-1.25-4.75-2.55-4.75-4.76 0-1.73.68-2.27 1.4-2.84l.08-.06c.47-.38 1.01-.82 1.33-1.53.87-1.94 1.01-6.88 0-8.14-.51-.62-1.86-2.73-1.47-4.14.15-.54.49-.94 1.05-1.22.59-.3 1.39-.46 2.37-.46 1.92 0 4.06.59 5.16.93 3.94 1.24 8.7 4.81 10.06 5.88.04.03.06.05.07.05l.87.6-.54-.9c-.04-.06-3.49-5.7-9.67-7.76-1.2-.4-3.56-1.08-5.88-1.08-1.38 0-2.56.24-3.48.71-1.14.58-1.9 1.49-2.22 2.65-.78 2.84 1.76 6 1.85 6.1.29.53.42 4.34-.26 5.86-.1.21-.36.42-.68.68-.11.08-.22.17-.34.26-.97.72-2.43 1.81-2.43 4.33 0 3.45 3.52 5.32 6.35 6.82.46.24.91.48 1.31.71z"/><path id="Layer" class="shp5" d="M8.37 15.98c-1.52-1.24-.39-2.4-.51-3.81-.06-.76-.12-1.47-.37-1.86-1.4-2.18-4.68-2.84-4.71-2.85l-1.54-.3 1.02-1.18c.13-.15 4.32-4.12 10.8-2.04 4.54 1.45 7.9 6.37 8.02 6.57l-2.27 1.06c-.03-.04-2.69-4.67-6.58-5.91-3.14-1.01-6.04-.05-7.28.57 1.32.53 3.04 1.48 4.08 3.11.49.77.58 1.74.66 2.68.1 1.24.2 2.41 1.12 3.17l-2.44.79z"/><path id="Layer" class="shp5" d="M8.32 16.24l-.1-.08c-1.12-.93-.92-1.84-.73-2.72.09-.4.18-.82.14-1.25-.06-.73-.12-1.41-.34-1.76-1.32-2.07-4.53-2.74-4.56-2.74L.81 7.31l1.27-1.48c.03-.03 2.72-2.72 7.27-2.72 1.24 0 2.52.2 3.78.61 4.74 1.51 8.11 6.62 8.14 6.67l.14.21-2.69 1.26-.11-.17c-.29-.49-2.84-4.66-6.45-5.82-.88-.28-1.82-.43-2.77-.43-1.73 0-3.13.47-3.88.79 1.25.55 2.76 1.49 3.72 2.99.52.81.6 1.81.69 2.77.1 1.2.19 2.32 1.04 3.02l.32.26-2.96.97z"/><path id="Layer" class="shp5" d="M14.38 13.61c-.01 0-.62-2.65-2.31-3.98-2.39-1.89-5.3-.89-5.33-.88l-.42-1.29c.14-.05 3.47-1.09 6.54 1.05 3.09 2.15 3.46 4.11 3.49 4.32l-1.97.78z"/><path id="Layer" fill-rule="evenodd" class="shp5" d="M14.15 13.66c0-.02-.6-2.58-2.22-3.86-.93-.72-2.04-1.09-3.31-1.09-.99 0-1.73.23-1.81.26l-.21.07-.57-1.73.22-.07c.09-.03.98-.31 2.23-.31 1.65 0 3.21.49 4.51 1.39 3.17 2.21 3.56 4.25 3.59 4.48l.03.18-2.4.94-.06-.26zm-1.94-4.21c1.44 1.13 2.12 3.14 2.32 3.86l1.56-.62c-.14-.54-.76-2.18-3.36-3.99-1.24-.87-2.67-1.31-4.25-1.31-.87 0-1.54.14-1.87.22l.28.86c.32-.08.95-.22 1.73-.22 1.36 0 2.6.42 3.59 1.2z"/><path id="Layer" class="shp5" d="M22.73 70.37c-.68 0-1.37-.25-1.84-.66-.37-.31-1.61-1.44-2.16-2.83-.2-.51-.16-.93.14-1.22.2-.21.63-.45 1.49-.45h4.62c.65 0 1.12.14 1.39.41.35.35.24.8.14 1.04-.17.41-.87 1.76-2.05 3.01-.42.45-1.03.7-1.73.7zm.71-35.23L21 34.98s.62 1.1 1.03 2.51c.45 1.6-.42 3.93-.42 3.93s3.26-3.66 1.83-6.28zm-3.05 41.63c-8.7-.66-11.76-8.82-11.76-10.52h2.27-1.13 1.13c.02.74 2.33 7.71 9.66 8.27l-.17 2.25z"/><path id="Layer" class="shp3" d="M17.95 62.16c-.14-.78-.15-1.52.01-2.25-.66-.49-1.84-.67-2.73-.96-.73-.46-4.46.47-7.16-2.77-3.38-4.07-2.67-6.49-2.67-6.49-.87.95-1.71.59-3.03 5.05-1.33 4.46.62 7.57 4.25 10.7 1.71 1.47 4.13 2.08 6.22 2.31-.7-.69 1.19-.76 2.49-1.25-.1-1.04.07-2.05.86-2.87.47-.49 1.08-.79 1.71-1.02.04-.08.07-.16.1-.23-.02-.07-.04-.15-.05-.22z"/><path id="Layer" class="shp4" d="M15.32 66.48c-.08-.22-.14-.45-.19-.67-.06-.25-.36-.94.01-.15-.1-.2-.16-.41-.2-.62-5.88-.01-10.99-4.01-10-12.43-.77-1.01-1.85 2.05-1.85 2.05S.15 63.13 7.74 66.41c2.54 1.1 4.77 1.89 5.3 1.57 1.1.22 2.09-.54 2.46-1.04-.06-.15-.13-.31-.18-.46z"/><path id="Layer" class="shp5" d="M17.84 60.94c.01-.71.16-1.4.5-2.09.03-.04.05-.09.08-.13-2.26-.02-4.86-.24-7.08-1.12-2.44-.97-5.49-4.28-6.01-8.16 0 0-4.59 3.51-3.24 11.03 1.26 7.07 7.22 9.37 14.01 9.76.01-.05-.76-1.62-.52-2.58-3.86.27-8.17-1.2-10.25-4.6-1.91-3.12-1.37-8.43-.59-9.21 1.91 5.99 8.79 7.2 13.1 7.1z"/><path id="Layer" class="shp5" d="M18.55 56.65c-1.22 3.56-3.72 6.44-3.72 6.44s3.44-.15 3.63-.75c.14-.45 3.1-7.33 4.24-15.38-1.07 1.74-4.04 9.39-4.15 9.69z"/><path id="Layer" class="shp1" d="M38.01 48.45s3.9 5.91 6.76 10.1c.44.65-2.86.69-2.86.69l-3.9-10.79zm-1.85-12.26s1.17 2.91 1.82 4.45c.69 1.68 3.36 2.51 3.36 2.51s-1.38-1.44-1.38-5.07c0-1.53-1.99-2.14-1.99-2.14l-1.81.25z"/><path id="Layer" class="shp1" d="M37.35 37.84s2.4 2.84 6.87 1.25c4.47-1.59 4.92-7.28 4.92-8.87 0-1.59-8.47 1.59-9.62 2.28-1.14.68-3.32 3.41-2.17 5.34zM54.22 7.48s-4.13-.8-6.88 1.36c-2.74 2.16-3.55 3.87-3.55 3.87l4.64 3.64s2.24-1.03 2.92-3.99c.69-2.95.23-4.31 2.87-4.88z"/><path id="Layer" class="shp1" d="M38.55 29.63c1.77-2.5 4.7-3.59 7.04-3.77 3.98-.31 5.87 1.09 5.87 1.09s-6.52.27-8.41 2.72c-3.5 4.56-8.6 4.93-9.42 3.93.95.05 1.99-.42 3.1-1.46.69-.65 1.26-1.72 1.82-2.51zm11.01 8.84S56.8 36 55.42 33.5c-1.37-2.5-.28-3.86-.28-3.86s4.04 2.99 3.01 6.18c-.63 1.95-1.69 3.36-7.52 6.07-2.8 5.16-.58 14.44-.71 14.48-.22.07-3.93-1.82-3.68-10.5.08-2.66.3-6.3 3.32-7.4zm-9.48-26.55c3.03 1.53 7.19 3.66 7.19 3.66l-1.64.82c.16.25.23.4.23.4l-1.68.76s-4.1 2.94-6.61 4.84c.84-2.56 3.3-6.58 3.3-6.58s.7-1.85-.79-3.9zM29.99 74.28c9.33 0 12.49-4.69 12.49-4.69l-1.46 3.52c-.55 1.52-6.43 6.26-11.01 6.26"/><path id="Layer" class="shp1" d="M41.46 66.41s-.86 5.2-4.3 5.2c-2.91 0-3.78-4.39-3.78-5.3l8.08.1zm5.72-7.85c-.31-.83-1.38-4.2-1.72-7.27-.41-3.68-.26-9.05-.26-9.05s.92 3.52 1.72 4.09c.8.57 2.29 4.43 2.29 4.43s.79 5.75 1.17 7.69c-1.05.21-1.93-.41-3.2.11zm8.3-22.8s-1.95-.68-2.52-4.89c-.58-4.2.68-7.84.68-7.84s-.11 5.8.58 6.93c.68 1.14 1.26 1.48 2.06 2.96s-.35 2.38-.8 2.84z"/><path id="Layer" class="shp2" d="M53.15 8.47l.4-.25c1.17.04-.4.25-.4.25z"/><path id="Layer" class="shp0" d="M38.49 10.68s1.83-.3 2.75-1.67c.92-1.36 3.51-4.09 7.65-4.12 4.14-.03 8.23 1.09 8.23 1.09l-3.57 2.24c-.38-.01-1.04 0-2.13.03-4.49.15-5.18 4.55-5.18 4.55l-15.8-2.16"/><path id="Layer" class="shp3" d="M36.96 34.99s2.14 2.12 5.43 1.44c3.28-.68 5.27-2.12 5.42-4.62.15-2.5-.69-3.49-.69-3.49s-3.67 1.14-5.42 2.66c-1.76 1.51-3.06 3.94-4.74 4.01z"/><path id="Layer" class="shp4" d="M39.55 34.23s1.86.85 3.93.16c2.71-.9 2.89-3.7 2.89-3.7s1.67 4.85-3 5.78c-3.74.75-5.96-1.4-5.96-1.4l2.14-.84z"/><path id="Layer" class="shp5" d="M51.67 15.98c1.52-1.24.39-2.4.51-3.81.06-.76.12-1.47.37-1.86 1.4-2.18 4.68-2.84 4.71-2.85l1.55-.3-1.03-1.18c-.13-.15-4.32-4.12-10.8-2.04-4.54 1.45-7.89 6.37-8.02 6.57l2.27 1.06c.03-.04 2.69-4.67 6.58-5.91 3.14-1.01 6.04-.05 7.28.57-1.32.53-3.04 1.48-4.08 3.11-.49.77-.58 1.74-.66 2.68-.1 1.24-.2 2.41-1.12 3.17l2.44.79zm4.04 18.18s-1.9-2.34-2.47-6.91c-.22-1.79.18-5.34.81-6.7-.12 3.35.74 6.7.74 6.7s.58 6.23.92 6.91z"/><path id="Layer" class="shp5" d="M45.67 13.61s.61-2.65 2.3-3.98c2.39-1.89 5.3-.89 5.33-.88l.42-1.29c-.14-.05-3.47-1.09-6.54 1.05-3.09 2.15-3.46 4.11-3.49 4.32l1.98.78zm4.06 18.87s1-1.42.82-2.98c-.09-.77-.45-1.57-1.09-1.85-1.2-.52-1.73.83-1.73.83s1.68.41 2 4z"/><path id="Layer" class="shp5" d="M38.75 34.64l-.06.12s3.11 2.33 6.31-.03c1.71-1.26 1.55-4.39 1.03-5.71-1.37.31-2.52.86-3.49 1.5 1.22-1.08 2.29-1.87 2.29-1.89l1.39-.39 2.69-.92c.04.21 1.02 4.78-1.82 7.9-1.26 1.38-7.16 4.48-9.96-.82l1.62.24z"/><path id="Layer" class="shp5" d="M39.04 34.98c-1.75 2.66-6.18 1.14-6.11-1.66 0 0 2.96 1.62 5.58-1.37 1.52-1.74 6.42-6.54 13.05-4.95-4.58 1-10.65 5.16-12.52 7.98z"/><path id="Layer" class="shp5" d="M52.18 42.47c-.42.24-1.91 1.77-1.91 4.06 0 1.15.11 6.92.69 10.44-.86.55-1.46.67-2.32 1.24-.43-4.08-.74-10-.59-12.38.16-2.73 1.63-4.55 2.99-5.33.43-.24.87-.48 1.32-.72 2.33-1.25 4.75-2.55 4.75-4.76 0-1.73-.68-2.27-1.4-2.84l-.07-.06c-.48-.38-1.02-.82-1.34-1.53-.87-1.94-1.01-6.88 0-8.14.51-.62 1.86-2.73 1.47-4.14-.15-.54-.49-.94-1.05-1.22-.59-.3-1.38-.46-2.37-.46-1.92 0-4.06.59-5.16.93-3.94 1.24-8.7 4.81-10.06 5.88-.04.03-.06.05-.07.05l-.87.6.54-.9c.04-.06 3.49-5.7 9.67-7.76 1.2-.4 3.56-1.08 5.88-1.08 1.38 0 2.55.24 3.48.71 1.14.58 1.9 1.49 2.22 2.65.78 2.84-1.76 6-1.85 6.1-.29.53-.42 4.34.26 5.86.1.21.36.42.68.68.11.08.22.17.34.26.97.72 2.43 1.81 2.43 4.33 0 3.45-3.52 5.32-6.35 6.82-.46.24-.91.48-1.31.71z"/><path id="Layer" class="shp5" d="M47.99 15.58c-.56-.94-2-2.76-5.29-4.36-3.69-1.78-7.95-2.68-12.67-2.68h-.02c-4.72 0-8.99.9-12.67 2.68-3.3 1.6-4.73 3.42-5.29 4.36l-.24.31 2.83.63.09-.12.05-.1c.04-.18.42-1.18 3.57-2.71 3.36-1.63 7.29-2.45 11.67-2.45s8.3.82 11.67 2.45c3.15 1.53 3.53 2.53 3.57 2.71l.05.1.09.12 2.82-.63-.23-.31z"/><path id="Layer" class="shp5" d="M51.67 15.98c1.52-1.24.39-2.4.51-3.81.06-.76.12-1.47.37-1.86 1.4-2.18 4.68-2.84 4.71-2.85l1.55-.3-1.03-1.18c-.13-.15-4.32-4.12-10.8-2.04-4.54 1.45-7.89 6.37-8.02 6.57l2.27 1.06c.03-.04 2.69-4.67 6.58-5.91 3.14-1.01 6.04-.05 7.28.57-1.32.53-3.04 1.48-4.08 3.11-.49.77-.58 1.74-.66 2.68-.1 1.24-.2 2.41-1.12 3.17l2.44.79z"/><path id="Layer" class="shp5" d="M48.76 15.28l.32-.27c.85-.69.94-1.82 1.05-3.02.08-.96.16-1.96.68-2.77.96-1.5 2.47-2.44 3.72-2.99-.75-.32-2.15-.79-3.88-.79-.95 0-1.89.15-2.77.43-3.61 1.16-6.16 5.33-6.45 5.82l-.11.17-2.69-1.25.14-.22c.03-.05 3.4-5.16 8.14-6.67 1.26-.41 2.54-.61 3.78-.61 4.56 0 7.25 2.69 7.27 2.72l1.28 1.48-1.93.38c-.03 0-3.24.67-4.56 2.75-.22.34-.28 1.02-.34 1.75-.04.43.05.85.14 1.26.19.88.39 1.79-.73 2.71l-.1.08-2.96-.96z"/><path id="Layer" class="shp5" d="M45.67 13.61s.61-2.65 2.3-3.98c2.39-1.89 5.3-.89 5.33-.88l.42-1.29c-.14-.05-3.47-1.09-6.54 1.05-3.09 2.15-3.46 4.11-3.49 4.32l1.98.78z"/><path id="Layer" fill-rule="evenodd" class="shp5" d="M43.46 12.8c.03-.23.42-2.27 3.59-4.48 1.3-.9 2.86-1.39 4.51-1.39 1.25 0 2.14.28 2.24.31l.21.07-.56 1.73-.22-.07c-.09-.03-.82-.26-1.81-.26-1.27 0-2.38.37-3.31 1.09-1.62 1.28-2.21 3.84-2.22 3.86l-.06.26-2.4-.94.03-.18zm9.97-5.19c-.33-.08-1-.22-1.87-.22-1.58 0-3.01.44-4.25 1.31-2.6 1.81-3.22 3.45-3.36 3.99l1.56.62c.2-.72.88-2.73 2.32-3.86.99-.78 2.23-1.2 3.59-1.2.78 0 1.41.14 1.73.22l.28-.86z"/><path id="Layer" class="shp5" d="M35.58 69.67c-1.18-1.25-1.88-2.6-2.05-3.01-.1-.24-.21-.69.14-1.04.27-.27.74-.41 1.39-.41h4.62c.86 0 1.29.24 1.49.45.3.29.34.71.14 1.22-.55 1.39-1.79 2.52-2.15 2.83-.48.41-1.17.66-1.85.66-.69 0-1.31-.25-1.73-.7zm1.02-34.53l2.44-.16s-.62 1.1-1.03 2.51c-.45 1.6.42 3.93.42 3.93s-3.26-3.66-1.83-6.28z"/><path id="Layer" class="shp1" d="M30.02 26.48c-1.56 0-3.59-.04-5.11-1.13 0 0 1.99 3.47 5.11 3.47v-.43.43c3.12 0 5.11-3.47 5.11-3.47-1.52 1.09-3.55 1.13-5.11 1.13z"/><path id="Layer" class="shp5" d="M34.31 26.47c-1.56.94-2.96 1.26-4.29 1.29-1.33-.03-2.73-.35-4.29-1.29 0 0 2.28 2.75 4.28 2.77h.02c2-.02 4.28-2.77 4.28-2.77zm5.34 50.3l-.17-2.25c7.33-.56 9.64-7.53 9.65-8.27h2.28c0 1.7-3.06 9.86-11.76 10.52z"/><path id="Layer" class="shp3" d="M42.09 62.16c.14-.78.15-1.52-.01-2.25.66-.49 1.84-.67 2.73-.96.73-.46 4.46.47 7.16-2.77 3.38-4.07 2.67-6.49 2.67-6.49.87.95 1.71.59 3.03 5.05 1.33 4.46-.62 7.57-4.25 10.7-1.71 1.47-4.13 2.08-6.22 2.31.7-.69-1.19-.76-2.49-1.25.1-1.04-.07-2.05-.86-2.87-.47-.49-1.08-.79-1.71-1.02-.04-.08-.07-.16-.1-.23.02-.07.04-.15.05-.22z"/><path id="Layer" class="shp4" d="M44.72 66.48c.08-.22.13-.45.19-.67.06-.25.36-.94-.01-.15.1-.2.16-.41.2-.62 5.88-.01 10.99-4.01 10-12.43.77-1.01 1.85 2.05 1.85 2.05s2.94 8.47-4.66 11.75c-2.53 1.1-4.76 1.89-5.29 1.57-1.1.22-2.09-.54-2.47-1.04.07-.15.14-.31.19-.46z"/><path id="Layer" class="shp5" d="M42.2 60.94c-.01-.71-.16-1.4-.5-2.09-.03-.04-.05-.09-.08-.13 2.26-.02 4.86-.24 7.08-1.12 2.44-.97 5.49-4.28 6.01-8.16 0 0 4.59 3.51 3.24 11.03-1.26 7.07-7.22 9.37-14.01 9.76-.01-.05.76-1.62.52-2.58 3.85.27 8.17-1.2 10.25-4.6 1.91-3.12 1.37-8.43.59-9.21-1.91 5.99-8.79 7.2-13.1 7.1z"/><path id="Layer" fill-rule="evenodd" class="shp5" d="M44.94 62.71c1.18 1.27 1.37 3.03.55 5.23-2.17 5.87-5.23 11.82-15.46 11.83h-.02c-10.23 0-13.29-5.96-15.46-11.83-.82-2.2-.63-3.96.55-5.23.81-.87 2.3-1.91 5.74-1.91H39.2c3.44 0 4.93 1.04 5.74 1.91zm-1.59 4.82c.57-1.63.53-2.84-.13-3.59-.46-.52-1.5-1.13-3.87-1.13H20.69c-2.37 0-3.41.61-3.87 1.13-.66.75-.7 1.96-.13 3.59 1.04 2.95 3.82 10.07 13.33 10.09 9.51-.02 12.29-7.14 13.33-10.09z"/><path id="Layer" class="shp5" d="M41.49 56.65c1.22 3.56 3.72 6.44 3.72 6.44s-3.44-.15-3.63-.75c-.14-.45-3.1-7.33-4.24-15.38 1.07 1.74 4.04 9.39 4.15 9.69z"/></g></svg>