<svg xmlns="http://www.w3.org/2000/svg" width="41" height="90"><style>.shp0{fill:#d34a47}</style><g id="Layer"><path id="Layer" class="shp0" d="M31.59 87.26l.87-14.38 2.41-4.07s-5.46 2.22-14.62 2.22c-9.14 0-14.52-2.18-14.52-2.18l2.69 4.44.95 13.97c0 1.49 4.98 2.71 11.11 2.71 6.14 0 11.11-1.22 11.11-2.71zm-2.73-67.15l1.82-7.16 10.1-10.56L38.12.14l-10.7 11.24-2.11 8.56c-1.54-.05-3.15-.08-4.79-.08-11.26 0-20.4 1.28-20.4 2.84 0 1.58 9.14 2.86 20.4 2.86 11.26 0 20.4-1.28 20.4-2.86 0-1.15-4.95-2.15-12.06-2.59z"/><path id="Layer" d="M27.79 24.11s-.39.09-1.56.1c-1.15 0-1.98-.01-2.31-.31a.494.494 0 01-.14-.34c0-.21.15-.32.34-.4l.17.27c-.08.03-.12.06-.12.09 0 .16 1.19.26 2.1.25.91-.01 2.01-.08 2.01-.23 0-.05-.08-.09-.23-.13l.17-.27c.24.07.45.21.45.45 0 .42-.54.48-.88.52z" fill="#fff"/><path id="Layer" class="shp0" d="M40.76 2.42c.26-.3-.13-1.04-.86-1.67-.73-.63-1.52-.9-1.78-.61-.25.29.13 1.04.86 1.67.73.62 1.53.9 1.78.61zm-9.65 49.72c-.24-2.29 5.04-5.61 3.68-5.71-2.91.17-4.36 3.39-5.83 6.78-.54 1.23-2.38 6.51-3.58 5.87-1.21-.66 1.56-5 2.34-7.58-.9.65-4.19 3.19-5.03.81-1.36 1.15-4.27 1.77-3.94-1.25-.73 1.28-2.36 3.06-4.3 2.32-2.57-.97 1.48-9.08 2.48-8.66 1.01.4-.19 2.25-.51 2.96-.7 1.58-1.5 3.56-.97 3.98.93.69 3.43-2.64 3.48-2.71.47-.62 1.81-4.64 2.88-4.18 1.08.47-2.68 5.78-1.27 6.83.28.21 1.44-.13 2.15-.89.45-.49.29-1.57 1.82-5.18 1.53-3.6 2.88-8.09 3.92-7.75 1.05.34.19 2.64-.19 3.5-1.75 4.04-4.8 10.69-3.36 10.19 1.43-.5 2.18-.53 3.58-2.16 1.4-1.63 1.34-4.33 2.27-4.27.95.06.78.92.56 1.58.92-1.04 4.36-3.25 5.19-1.07.99 2.59-4.93 6.32-3.45 6.12 1.44-.18 3.77-1.64 4.76-2.97l2.74-24.43s-2.75 2.26-20.28 2.26C2.73 26.53.26 24.32.26 24.32L2.6 46.61c1.23-3.49 4.17-10.55 8.8-10.31 2.11.11 4.92 4.14 2.51 4.27-1.02.06-1.13-2.01-2.33-2.32-.87-.21-2.08.49-2.87 1.25-1.56 1.52-4.92 7.51-4.48 10.5.57 3.81 5.29-1.33 6.09-2.85.57-1.07.95-4.25 2.18-3.92 1.23.33-.11 3.62-1 6.52-1 3.26-1.53 6.69-2.79 6.3-1.26-.4.79-4.6.72-5.34-1.18 1.08-3.36 3.83-6.15 2.47l1.45 13.84s3.85 3.02 15.43 3.02 15.58-2.97 15.58-2.97l1.79-16.04c-1.47 1.42-6.12 3.95-6.42 1.11z"/></g></svg>