<svg xmlns="http://www.w3.org/2000/svg" width="100" height="79"><style>.shp1{fill:#5d87a1}.shp2{fill:#f8981d}</style><path id="Layer" d="M-6.15.34h112.44v78.11H-6.15V.34z" fill="none"/><path id="Layer" class="shp1" d="M28.27 63.43h-3.05c-.1-5.15-.4-10-.89-14.53h-.02l-4.64 14.53h-2.32l-4.6-14.53h-.03c-.34 4.35-.56 9.2-.65 14.53H9.3c.18-6.49.63-12.56 1.35-18.23h3.77l4.39 13.39h.03l4.42-13.39h3.61c.79 6.64 1.25 12.72 1.4 18.23m13.2-13.45c-1.24 6.74-2.88 11.64-4.91 14.69-1.58 2.36-3.31 3.53-5.2 3.53-.5 0-1.12-.15-1.85-.45v-1.62c.36.05.78.08 1.26.08.88 0 1.59-.25 2.13-.73.65-.6.97-1.26.97-2 0-.51-.25-1.54-.75-3.11l-3.34-10.39h2.99l2.39 7.77c.54 1.77.77 3 .68 3.7 1.31-3.51 2.22-7.33 2.75-11.47h2.88z"/><path id="Layer" fill-rule="evenodd" class="shp2" d="M81.99 63.43h-8.65V45.2h2.91v15.98h5.74v2.25zm-12.1 2.48l-4.35-2.54c-.72.22-1.52.32-2.38.32-2.32 0-4.05-.67-5.2-2.02-1.26-1.49-1.89-3.84-1.89-7.05 0-3.26.71-5.72 2.13-7.4 1.29-1.53 3.1-2.29 5.42-2.29 4.72 0 7.08 3.01 7.08 9.04 0 3.28-.71 5.76-2.13 7.43-.25.3-.54.57-.83.81l3.34 1.66-1.19 2.04zm-9.64-6.13c.68 1.1 1.75 1.65 3.2 1.65 2.79 0 4.18-2.32 4.18-6.94 0-2.6-.37-4.49-1.11-5.68-.68-1.09-1.74-1.64-3.2-1.64-2.79 0-4.18 2.3-4.18 6.89 0 2.62.37 4.53 1.11 5.72zm-5.45-1.41c0 1.55-.56 2.82-1.69 3.81-1.14.99-2.65 1.49-4.55 1.49-1.78 0-3.51-.57-5.18-1.71l.78-1.56c1.44.72 2.74 1.08 3.91 1.08 1.09 0 1.95-.25 2.57-.73.62-.48.99-1.16.99-2.02 0-1.09-.75-2.01-2.13-2.79-1.28-.7-3.83-2.17-3.83-2.17-1.38-1-2.07-2.09-2.07-3.87 0-1.48.52-2.67 1.55-3.58 1.03-.91 2.36-1.37 4-1.37 1.69 0 3.22.46 4.6 1.36l-.7 1.56c-1.18-.5-2.35-.75-3.5-.75-.93 0-1.65.22-2.15.67-.5.45-.82 1.03-.82 1.73 0 1.08.77 2.02 2.19 2.81 1.3.7 3.91 2.19 3.91 2.19 1.42 1.01 2.12 2.08 2.12 3.85z"/><path id="Layer" fill-rule="evenodd" class="shp1" d="M85.64 39.09c-.06-.44-1.16-.99-1.51-1.25-.71-.51-1.45-1.04-2.2-1.5-.39-.25-1.08-.42-1.52-.62-.59-.24-1.91-.48-2.24-.95-.66-.85-1.1-1.91-1.56-2.95-.46-1.05-1.03-2.15-1.49-3.23-.24-.53-.36-1-.62-1.5-1.6-3.11-3.97-5.71-6.85-7.53-.95-.6-2-1.15-3.17-1.52-.66-.2-1.45-.09-2.15-.24h-.46c-.4-.12-.73-.53-1.04-.75-.68-.47-1.36-.78-2.17-1.11-.29-.13-1.1-.43-1.38-.19-.18.04-.27.11-.31.28-.18.27-.02.66.08.91.34.7.8 1.12 1.22 1.71.37.53.83 1.13 1.09 1.7.57 1.23.84 2.6 1.36 3.83.2.46.51.99.8 1.41.24.33.68.57.81.99.26.44-.4 1.9-.55 2.36-.57 1.8-.46 4.32.2 5.88.26.62.51 1.34 1.21 1.52l.08-.04c.16-1.22.2-2.38.62-3.33.24-.6.72-1.02 1.05-1.5.22.13.22.53.36.79.28.69.59 1.43.94 2.12a28.49 28.49 0 002.46 4.01c.31.44.75.92 1.14 1.32.18.15.37.24.51.44h.04v.06c-.66-.24-1.07-.92-1.6-1.32-.99-.75-2.18-1.87-2.86-2.95-.28-.62-.59-1.21-.9-1.83v-.04c-.13.18-.09.35-.15.62-.29 1.1-.07 2.35-1.06 2.75-1.12.46-1.95-.75-2.3-1.3-1.13-1.83-1.43-4.91-.64-7.4.17-.55.2-1.21.5-1.65-.06-.4-.37-.51-.55-.75-.31-.42-.57-.9-.81-1.36-.46-.91-.79-1.99-1.14-2.96-.16-.39-.2-.79-.36-1.16-.26-.58-.74-1.15-1.11-1.66-.51-.72-1.98-2.13-1.39-3.56.92-2.27 4.15-.55 5.41.24.3.2.66.62 1.01.77l1.65.09c1.03.24 1.99.44 2.81.9 3.78 2.23 6.24 4.49 8.5 8.24.48.79.73 1.65 1.12 2.51.55 1.28 1.17 2.62 1.8 3.83.29.57.51 1.21.9 1.7.16.22.6.28.86.41.73.38 1.61.66 2.29 1.11 1.27.79 2.51 1.74 3.62 2.71.42.37.71.9 1.1 1.29v.2c-.35.11-.7.22-1.05.31-.77.2-1.45.15-2.2.35-.46.14-1.03.31-1.52.36l.05.04c.28.81 1.82 1.47 2.53 1.96.85.62 1.64 1.37 2.28 2.22l.66.64c.15.22.2.51.35.71v.06c-.31-.11-.46-.39-.7-.57-.49-.33-.97-.73-1.45-1.03-.84-.53-1.8-.84-2.66-1.37-.48-.31-.95-.66-1.41-1.01-.42-.31-.88-.9-1.14-1.34-.15-.25-.17-.53-.35-.71.04-.42.57-.42.9-.55 1.14-.49 2.5-.66 4.26-.62zM63.23 19.95c.17.18.46.29.59.51.11.15.13.31.26.46 0 .53-.15.88-.46 1.1l-.04.05c-.18-.36-.33-.71-.51-1.06-.22-.31-.52-.55-.7-.9h-.04v-.05c.07-.02.14-.03.22-.05l.22-.03c.08-.01.15-.02.23-.02.07-.01.15-.01.23-.01z"/><path id="Layer" class="shp2" d="M87.73 63.42h.46v-2.23h-.68l-.56 1.52-.61-1.52h-.65v2.23h.43v-1.7h.02l.63 1.7h.33l.63-1.7v1.7zm-3.66 0h.48v-1.85h.63v-.38h-1.77v.38h.66v1.85z"/></svg>