<svg xmlns="http://www.w3.org/2000/svg" width="140" height="98"><style>.shp1{fill:#5d87a1}.shp2{fill:#f8981d}</style><path id="Layer" d="M.4.42h139.38v96.9H.4V.42z" fill="none"/><path id="Layer" class="shp1" d="M43.06 78.68h-3.77c-.14-6.39-.5-12.39-1.1-18.02h-.04l-5.74 18.02h-2.88l-5.71-18.02h-.03c-.42 5.4-.69 11.41-.8 18.02h-3.44c.22-8.04.78-15.58 1.67-22.61h4.67l5.45 16.61h.03l5.48-16.61h4.47c.98 8.24 1.56 15.78 1.74 22.61M59.42 62c-1.53 8.36-3.56 14.43-6.07 18.23-1.96 2.92-4.11 4.38-6.45 4.38-.62 0-1.39-.19-2.3-.56v-2.02c.44.06.96.1 1.56.1 1.1 0 1.98-.3 2.64-.91.81-.73 1.21-1.56 1.21-2.47 0-.63-.32-1.91-.94-3.86L44.93 62h3.71l2.97 9.64c.67 2.19.95 3.72.83 4.59 1.63-4.35 2.76-9.1 3.41-14.23h3.57z"/><path id="Layer" fill-rule="evenodd" class="shp2" d="M109.65 78.68H98.93V56.07h3.61V75.9h7.11v2.78zm-14.99 3.09l-5.4-3.15c-.89.26-1.88.39-2.95.39-2.87 0-5.02-.84-6.45-2.51-1.56-1.85-2.34-4.77-2.34-8.74 0-4.04.88-7.1 2.64-9.18 1.61-1.9 3.85-2.85 6.72-2.85 5.85 0 8.78 3.74 8.78 11.22 0 4.07-.88 7.14-2.64 9.22-.32.37-.67.7-1.04 1l4.15 2.06-1.47 2.54zM82.7 74.16c.85 1.36 2.17 2.04 3.98 2.04 3.45 0 5.17-2.87 5.17-8.61 0-3.22-.45-5.56-1.37-7.04-.84-1.36-2.16-2.04-3.97-2.04-3.45 0-5.18 2.85-5.18 8.55 0 3.26.46 5.62 1.37 7.1zm-6.75-1.75c0 1.92-.7 3.49-2.1 4.73-1.4 1.22-3.28 1.84-5.64 1.84-2.21 0-4.34-.71-6.41-2.11l.97-1.95c1.78.9 3.39 1.34 4.84 1.34 1.35 0 2.42-.3 3.19-.9.77-.6 1.22-1.44 1.22-2.51 0-1.34-.93-2.49-2.64-3.45-1.58-.87-4.74-2.69-4.74-2.69-1.72-1.25-2.57-2.6-2.57-4.81 0-1.84.64-3.32 1.92-4.44 1.28-1.13 2.93-1.69 4.96-1.69 2.09 0 3.99.56 5.7 1.67l-.86 1.94c-1.47-.62-2.92-.93-4.34-.93-1.16 0-2.05.28-2.67.84-.63.55-1.01 1.27-1.01 2.14 0 1.34.95 2.5 2.71 3.48 1.6.87 4.84 2.72 4.84 2.72 1.76 1.25 2.63 2.59 2.63 4.78z"/><path id="Layer" fill-rule="evenodd" class="shp1" d="M114.18 48.49c-.08-.54-1.44-1.23-1.88-1.55-.87-.63-1.79-1.29-2.72-1.86-.49-.3-1.34-.52-1.88-.77-.73-.3-2.37-.6-2.78-1.17-.82-1.07-1.36-2.38-1.93-3.66-.57-1.31-1.28-2.68-1.86-4.02-.29-.65-.43-1.23-.76-1.86a24.211 24.211 0 00-8.49-9.34c-1.18-.74-2.48-1.42-3.93-1.89-.82-.24-1.8-.1-2.67-.3h-.57c-.49-.13-.9-.65-1.28-.93-.84-.57-1.69-.95-2.7-1.36-.35-.17-1.36-.55-1.71-.25-.22.06-.33.14-.38.36-.22.33-.03.82.1 1.12.42.87.99 1.39 1.51 2.13.46.65 1.03 1.39 1.36 2.1.7 1.53 1.03 3.23 1.68 4.76.25.57.63 1.23.98 1.74.3.42.85.71 1.01 1.24.33.54-.49 2.35-.68 2.92-.71 2.24-.57 5.35.25 7.29.33.77.63 1.67 1.5 1.89l.1-.05c.19-1.51.25-2.96.77-4.13.3-.74.89-1.26 1.3-1.86.28.16.28.66.44.98.35.85.73 1.78 1.17 2.63.9 1.75 1.91 3.44 3.05 4.97.38.55.93 1.15 1.42 1.64.22.19.46.3.62.54h.06v.09c-.82-.31-1.34-1.15-1.99-1.65-1.23-.92-2.7-2.32-3.54-3.65-.35-.77-.74-1.51-1.12-2.27v-.05c-.16.21-.11.43-.19.76-.35 1.36-.08 2.92-1.31 3.41-1.38.58-2.42-.92-2.86-1.61-1.38-2.27-1.77-6.09-.79-9.18.22-.68.25-1.5.63-2.05-.08-.49-.46-.62-.68-.93-.38-.51-.71-1.12-1.01-1.69-.57-1.12-.98-2.46-1.42-3.66-.19-.49-.24-.98-.43-1.45-.33-.71-.93-1.42-1.39-2.05-.63-.9-2.45-2.65-1.72-4.42 1.15-2.82 5.15-.69 6.7.3.38.24.82.76 1.26.95l2.04.11c1.28.3 2.48.55 3.49 1.12 4.68 2.76 7.73 5.58 10.54 10.22.6.99.9 2.05 1.39 3.11.68 1.59 1.44 3.26 2.23 4.76.35.71.63 1.5 1.12 2.1.19.28.73.36 1.06.52.9.47 1.99.82 2.83 1.37 1.58.98 3.11 2.16 4.5 3.36.52.46.87 1.12 1.36 1.61v.25c-.44.13-.87.27-1.31.38-.95.24-1.8.19-2.72.43-.57.17-1.28.39-1.88.45l.05.05c.36 1.01 2.26 1.83 3.14 2.43 1.06.76 2.04 1.69 2.83 2.76l.82.79c.19.27.24.63.43.87v.09c-.38-.14-.57-.49-.87-.71-.6-.41-1.2-.91-1.8-1.29-1.03-.65-2.23-1.03-3.29-1.69-.6-.38-1.18-.82-1.75-1.26-.52-.38-1.09-1.12-1.41-1.66-.19-.3-.22-.66-.44-.88.06-.52.71-.52 1.12-.68 1.41-.6 3.1-.82 5.28-.77zM86.39 24.75c.22.22.58.36.74.63.14.19.16.38.33.57 0 .66-.19 1.1-.58 1.37l-.05.05c-.22-.43-.41-.87-.63-1.31-.27-.38-.65-.68-.87-1.12h-.05v-.05c.09-.02.18-.05.27-.06.1-.02.19-.04.28-.05.1-.01.19-.02.28-.02.1-.01.19-.01.28-.01z"/><path id="Layer" class="shp2" d="M116.77 78.68h.57v-2.77h-.85l-.69 1.89-.75-1.89h-.81v2.77h.53v-2.11h.03l.79 2.11h.4l.78-2.11v2.11zm-4.54 0h.6v-2.3h.78v-.47h-2.2v.47h.82v2.3z"/></svg>