<svg xmlns="http://www.w3.org/2000/svg" width="100" height="90"><style>.shp0{fill:#fff}.shp1{fill:#53c1de}</style><path id="Layer" class="shp0" d="M.29 44.9c0 7.52 7.33 14.54 18.89 18.5-2.31 11.63-.41 21.01 5.91 24.67 6.5 3.75 16.19 1.15 25.38-6.9 8.97 7.73 18.02 10.77 24.34 7.1 6.5-3.76 8.48-13.78 6.1-25.78 12.04-3.99 18.77-9.97 18.77-17.59 0-7.34-7.34-13.7-18.74-17.63 2.55-12.49.39-21.64-6.2-25.45-6.35-3.67-15.51-.47-24.61 7.46C40.67.86 31.6-1.71 25.02 2.11c-6.35 3.68-8.16 13.23-5.84 25.08C8.01 31.09.29 37.59.29 44.9z"/><path id="Layer" class="shp1" d="M78.53 31.18c-.92-.32-1.87-.62-2.85-.9.16-.66.31-1.3.44-1.94 2.15-10.46.75-18.89-4.05-21.66-4.61-2.66-12.14.11-19.74 6.74-.74.64-1.47 1.32-2.2 2.02-.49-.46-.98-.92-1.47-1.35C40.69 7 32.7 4.01 27.91 6.8c-4.6 2.66-5.96 10.58-4.03 20.5.19.95.41 1.93.65 2.93-1.13.32-2.22.66-3.26 1.02-9.35 3.27-15.32 8.38-15.32 13.69 0 5.48 6.41 10.97 16.14 14.31.77.26 1.57.51 2.39.74-.27 1.08-.5 2.13-.69 3.16-1.85 9.74-.41 17.47 4.18 20.12 4.74 2.74 12.69-.07 20.44-6.85.61-.54 1.22-1.11 1.84-1.7.8.77 1.59 1.49 2.39 2.18 7.5 6.46 14.91 9.07 19.49 6.42 4.73-2.75 6.27-11.06 4.27-21.16-.15-.78-.33-1.56-.53-2.37.56-.16 1.11-.33 1.65-.51 10.12-3.36 16.7-8.79 16.7-14.34 0-5.33-6.16-10.48-15.69-13.76z"/><path id="Layer" class="shp0" d="M76.33 55.69c-.48.16-.98.32-1.48.47-1.12-3.54-2.63-7.31-4.47-11.2 1.76-3.8 3.21-7.52 4.29-11.04.91.26 1.78.54 2.63.83 8.17 2.81 13.15 6.98 13.15 10.19 0 3.42-5.38 7.85-14.12 10.75zm-3.62 7.2c.88 4.47 1 8.51.42 11.67-.53 2.84-1.58 4.73-2.89 5.49-2.78 1.61-8.73-.49-15.15-6.02-.73-.63-1.47-1.31-2.21-2.02 2.48-2.73 4.97-5.9 7.39-9.41 4.27-.38 8.3-1 11.96-1.85.18.73.34 1.44.48 2.14zM36.05 79.77c-2.72.96-4.89.99-6.2.23-2.78-1.61-3.94-7.82-2.36-16.15.18-.95.4-1.93.65-2.93 3.61.8 7.61 1.38 11.89 1.72 2.44 3.45 5 6.61 7.58 9.38-.57.55-1.13 1.06-1.68 1.55-3.43 3-6.86 5.13-9.88 6.2zm-12.74-24.1c-4.3-1.47-7.85-3.39-10.29-5.48-2.19-1.87-3.3-3.74-3.3-5.25 0-3.22 4.8-7.33 12.79-10.12.97-.34 1.98-.66 3.04-.96 1.1 3.6 2.55 7.37 4.3 11.17-1.77 3.86-3.24 7.68-4.36 11.33-.75-.22-1.48-.45-2.18-.69zm4.27-29.1c-1.66-8.49-.56-14.9 2.22-16.5 2.95-1.72 9.48.72 16.36 6.85.44.39.88.8 1.33 1.22-2.57 2.76-5.1 5.9-7.52 9.32-4.15.39-8.13 1.01-11.78 1.83-.23-.92-.43-1.83-.61-2.72zm38.07 9.42c-.87-1.51-1.77-2.99-2.68-4.42 2.82.35 5.51.83 8.05 1.41-.76 2.44-1.71 4.99-2.83 7.61-.8-1.52-1.64-3.06-2.54-4.6zM50.13 20.84c1.74 1.89 3.48 3.99 5.19 6.28a112.779 112.779 0 00-10.43 0c1.72-2.27 3.47-4.37 5.24-6.28zM34.5 36.01c-.87 1.52-1.7 3.05-2.49 4.58-1.1-2.61-2.04-5.18-2.8-7.65 2.51-.57 5.2-1.03 8-1.38-.93 1.45-1.83 2.93-2.71 4.45zm2.79 22.58c-2.89-.33-5.62-.76-8.14-1.31.78-2.52 1.74-5.14 2.87-7.81a108.327 108.327 0 005.27 9.12zM50.23 69.3a85.436 85.436 0 01-5.31-6.36c1.69.06 3.42.1 5.17.1 1.8 0 3.57-.04 5.32-.12a76.854 76.854 0 01-5.18 6.38zm18-19.97c1.18 2.7 2.17 5.3 2.96 7.78-2.56.59-5.32 1.06-8.23 1.41.92-1.46 1.82-2.96 2.71-4.5.9-1.56 1.75-3.13 2.56-4.69zm-5.83 2.8c-1.38 2.4-2.79 4.69-4.23 6.85-2.62.18-5.33.28-8.08.28s-5.42-.09-7.99-.25c-1.5-2.19-2.95-4.48-4.32-6.86-1.37-2.36-2.62-4.75-3.76-7.12a106.065 106.065 0 018.03-13.95c2.62-.2 5.32-.31 8.04-.31 2.73 0 5.42.11 8.05.31 1.46 2.16 2.88 4.43 4.25 6.8 1.39 2.4 2.66 4.77 3.81 7.1-1.15 2.36-2.42 4.76-3.8 7.15zm7.78-42.18c2.96 1.71 4.11 8.6 2.25 17.63-.12.57-.25 1.16-.4 1.75-3.66-.84-7.64-1.47-11.8-1.86-2.42-3.46-4.94-6.61-7.46-9.33.68-.66 1.36-1.28 2.03-1.87 6.52-5.68 12.61-7.92 15.38-6.32z"/><path id="Layer" class="shp1" d="M50.09 37.04c4.35 0 7.88 3.54 7.88 7.9s-3.53 7.89-7.88 7.89c-4.36 0-7.89-3.53-7.89-7.89 0-4.36 3.53-7.9 7.89-7.9z"/></svg>