<svg xmlns="http://www.w3.org/2000/svg" width="100" height="89"><style>.shp2{fill:#e88634}.shp3{fill:#f8ca51}.shp4{fill:#f9cb52}.shp5{fill:#f4a73e}</style><path id="Layer" d="M44.17 32.06l10.61 18.49-13.39-.48 2.78-18.01z" fill="#f4a93f"/><path id="Layer" d="M49.26 35.6l7.86 14.95-16.07-.48 8.21-14.47z" fill="#f4a83e"/><path id="Layer" class="shp2" d="M47.78 38.16l6.88 12.39-13.44-.13 6.56-12.26z"/><path id="Layer" class="shp3" d="M55 36.9l2.12 13.65-16.24-.16L55 36.9z"/><path id="Layer" class="shp3" d="M49.26 54.73l8.04-4.34-16.42-.15 8.38 4.49z"/><path id="Layer" class="shp2" d="M0 44.22c.36 11.45 22.48 20.46 49.72 20.46v-4.43c-21.92-.11-44.93-6.83-45.3-16.03H0z"/><path id="Layer" class="shp4" d="M74.32 2.09c-10.08-5.42-28.94 9.25-42.56 32.86l3.83 2.21C46.65 18.21 63.96 1.64 72.11 5.92l2.21-3.83z"/><path id="Layer" class="shp2" d="M0 44.22c.36-11.45 22.48-20.45 49.72-20.45v4.42c-21.92.11-44.93 6.83-45.3 16.03H0z"/><path id="Layer" class="shp5" d="M24.89 1.11c-9.74 6.02-6.47 29.7 7.15 53.3l3.83-2.21C25 33.15 19.32 9.85 27.1 4.94l-2.21-3.83z"/><path id="Layer" class="shp4" d="M24.89 87.58c-9.74-6.03-6.47-29.7 7.15-53.31l3.83 2.22C25 55.54 19.32 78.83 27.1 83.75l-2.21 3.83z"/><path id="Layer" class="shp5" d="M24.31 1.38c10.09-5.42 28.94 9.25 42.56 32.86l-3.83 2.21C51.99 17.5 34.67.93 26.52 5.21l-2.21-3.83z"/><path id="Layer" class="shp2" d="M99.45 44.22c-.35-11.45-22.48-20.45-49.72-20.45v4.42c21.93.11 44.93 6.83 45.3 16.03h4.42z"/><path id="Layer" class="shp4" d="M24.44 87.62c.06.03.12.07.18.1C34.64 93.51 53.69 78.8 67.42 55l-3.8-2.24C52.47 71.87 34.94 88.58 26.88 83.92c-.02-.01-.05-.02-.07-.04l-.06-.03c-.02-.01-.04-.03-.06-.04a.21.21 0 01-.06-.04l-2.19 3.85z"/><path id="Layer" class="shp5" d="M74.61 87.31c-10.09 5.41-28.95-9.26-42.57-32.86l-.14-.25 3.78-2.3c11.04 19.08 28.5 35.86 36.7 31.59l2.23 3.82z"/><path id="Layer" class="shp2" d="M99.45 43.67v.28c0 11.58-22.26 20.73-49.72 20.73v-4.43c22.1-.11 45.3-6.94 45.3-16.25v-.25c0-.02-.01-.05-.01-.08h4.43z"/><path id="Layer" class="shp5" d="M74.04 87.58c9.72-6.03 6.45-29.7-7.17-53.31l-.24-.42-3.88 2.12.03.05c11.02 19.1 16.86 42.68 9.09 47.7l2.17 3.86z"/><path id="Layer" class="shp4" d="M74.3 1.81c9.73 6.03 6.46 29.71-7.16 53.31l-3.83-2.21c10.87-19.05 16.56-42.35 8.78-47.27l2.21-3.83z"/></svg>