<svg xmlns="http://www.w3.org/2000/svg" width="80" height="60"><style/><g id="Layer"><path id="Layer" fill-rule="evenodd" d="M68.84 34.54c7.21-.05 11.29 4.63 11.07 8.92-.13 3.35-3.21 4.72-3.77 4.82-.41.06-.64.07-.7-.25-.05-.22.11-.32.6-.63.48-.3 1.94-1.3 2.2-3.11.26-1.83-1.11-6.15-8.05-6.97-3.23-.38-5.77.07-7.73.89.36.94.62 1.92.67 2.91.09 2.18-1.42 3.78-2.98 4.93-.92.67-1.88 1.12-2.69 1.38-.64.28-1.52.57-2.13.44-1.35-.28-2.07-1.47-1.15-4.13.51-1.42 1.94-3.61 4.25-5.49-.52-1.07-1.12-2.19-1.41-3.2-.6-2.02-.77-3.23-.77-3.23s-1.91 3.96-4.37 7.56c-.15.2-.28.4-.42.6.48 1.12.87 2.32.91 3.52.09 2.17-.86 3.81-2.42 4.96-.85.64-1.74 1.05-2.52 1.33-.49.22-1.5.57-2.93.67-.77.04-1.52 0-1.95-.32-.58-.44-.65-.97-.35-1.72.26-.63 2.16-2.8 3.74-4.69.46-.52.87-1.07 1.24-1.56l-.01-.01s.29-.37.76-1.02c-.59-1.26-1.31-2.56-1.67-3.73-.59-2.02-.76-3.23-.76-3.23s-1.95 4.96-3.96 8.92c-1.56 3.08-2.6 4.93-3.07 5.75v.02s-.07.12-.19.31l-.09.15v-.02c-.52.77-1.7 2.29-2.87 2.29-3.2 0-2.02-6.5-2.02-6.5s-.95 2.4-2 4.48c-.86 1.68-1.63 3.12-3.35 3.12-.49 0-1.27-.02-1.93-.64-1.47-1.4-2.59-4.95-2.37-7.69.17-2.33.54-3.95 1.04-5.31-.88.48-1.9 1.04-2.94 1.65-.52.31-1.05.63-1.58.94.03.02.04.05.05.09 1.33 2.55 1.68 8.11-1.19 12.4-2.87 4.28-8.21 6.88-13.42 5.43-1.67-.47-4.21-3.94-2.03-8.77 1.93-4.27 9.65-8.31 11.68-9.31.16-.09.35-.19.55-.31C11.76 37.64 1.63 32.86.22 25.51c-.4-2.06.56-7.01 6.64-12.69 5.12-4.78 12.23-8.45 18.79-10.78C36.68-1.88 48.34.44 50.1 7.46c1.76 6.92-4.24 15.19-11.92 18.16-6.87 2.65-12.53 2.23-14.87 1.47-2.63-.86-4.19-2.61-4.57-3.6-.15-.38-.41-1.03 0-1.25.24-.15.35-.1 1.02.62.64.7 3.18 2.57 8.02 2.03C40.45 23.46 48.1 13.61 45.68 8.3c-1.69-3.71-11.45-5.39-23.72.66C7.06 16.39 6.25 22.51 6.12 24.85c-.35 6.39 7.9 9.76 12.36 14.53.06.05.11.12.18.18.82-.45 1.71-.93 2.57-1.41 2.26-1.24 4.37-2.39 5.36-2.93 1.58-2.28 4.75-4.8 7.06-4.8 3.69 0 2.41 5.28 2.41 5.28s.08-.24.18-.24c.1 0 .51-.71 1.65-.28 1.17.42.9 1.24.9 1.32.02.16-1.37 4.85-1.95 7.87-.28 1.43-.12 2.48-.03 2.48.12 0 .35-.36.57-.76v-.01l.44-.83c.04-.07.05-.12.05-.12.32-.63.78-1.55 1.3-2.7 1.02-2.24 4.91-10.93 5.25-11.89.33-.96.51-1.95.67-2.37.16-.43 1.54-.75 3.14-.73 1.61.02 1.77.7 1.78.85.01.14-.77 2.05-.95 3.39-.17 1.34 0 2.02.15 3.14.1.75.57 1.68 1.11 2.75 1.67-2.73 4.6-7.93 4.88-9.39.2-.99.51-1.95.67-2.37.16-.43 1.55-.75 3.15-.73 1.6.02 1.76.7 1.77.84.02.15-.77 2.06-.94 3.4-.18 1.34 0 2.02.14 3.14.13.97.87 2.28 1.62 3.75 2.02-.99 4.45-1.66 7.23-1.67zM15.33 52.58c2.42-2.64 3.41-5.98 2.37-9.76-.11.07-.23.14-.35.21 0 0-.05.03-.16.09-.59.36-1.09.66-1.42.86-1.47.92-3.69 2.42-5.41 4.04-2.82 2.64-3.41 6.35-1.92 7.2 1.38.81 4.58-.14 6.89-2.64zm16.76-11.4c.49-1.22 2.45-6.64 2.02-7.39-.33-.57-1.72-.1-2.97 1.3-.77.87-2.1 3.12-2.72 5-1.24 3.74-.71 7.53.17 7.77 1.02.27 2.7-4.72 3.5-6.68zm13.83 6.61c.96-.61 3.11-2.11 3.11-4.33v-.2c-.49.66-.96 1.24-1.35 1.74-.69.84-2.42 2.71-2.42 2.71s-.24.23-.15.29c.15.09.47-.03.81-.21zm10.66-2.43c1.21-.43 3.22-1.48 3.24-4.3.01-.42-.09-.87-.24-1.34-1.29 1.15-2.05 2.35-2.37 3.06-.83 1.83-.87 2.4-.63 2.58z" fill="#cd6799"/></g></svg>