<svg xmlns="http://www.w3.org/2000/svg" width="50" height="50"><style/><g id="Layer"><path id="Layer" fill-rule="evenodd" d="M24.91 0c13.72 0 24.89 11.21 24.9 25 0 13.78-11.18 25-24.9 25C11.17 50 0 38.78 0 25 0 11.21 11.17 0 24.91 0zm0 48.85c13.1 0 23.75-10.69 23.75-23.85 0-13.15-10.65-23.85-23.75-23.85C11.8 1.15 1.14 11.85 1.14 25c0 13.16 10.66 23.85 23.77 23.85zm.37-21.97l6.56 18.06c.05.11.1.2.16.29-2.23.79-4.61 1.22-7.09 1.22-2.11 0-4.13-.31-6.04-.87l6.41-18.7zm18.37-12.17c1.66 3.06 2.62 6.56 2.62 10.29 0 7.91-4.28 14.82-10.62 18.54l6.52-18.94c1.22-3.06 1.63-5.51 1.63-7.69 0-.78-.06-1.52-.15-2.2zM3.54 25c0-3.11.67-6.06 1.85-8.73L15.58 44.3A21.457 21.457 0 013.54 25zm35.79-1.08c0 1.83-.71 3.97-1.63 6.93L35.57 38l-7.72-23.05c1.29-.07 2.45-.21 2.45-.21 1.15-.13 1.01-1.84-.14-1.77 0 0-3.46.27-5.7.27-2.1 0-5.62-.27-5.62-.27-1.16-.07-1.29 1.7-.14 1.77 0 0 1.09.14 2.24.21l3.33 9.15-4.68 14.07-7.78-23.22c1.29-.07 2.45-.21 2.45-.21 1.15-.13 1.02-1.84-.14-1.77 0 0-3.46.27-5.69.27-.4 0-.88-.01-1.38-.02 3.83-5.82 10.39-9.66 17.86-9.66 5.55 0 10.62 2.13 14.42 5.63-.1-.01-.18-.03-.28-.03-2.1 0-3.58 1.84-3.58 3.81 0 1.77 1.01 3.26 2.09 5.03.82 1.43 1.77 3.27 1.77 5.92z" fill="#464342"/></g></svg>